<svg width="31" height="32" viewBox="0 0 31 32" fill="none" xmlns="http://www.w3.org/2000/svg">
<path fill-rule="evenodd" clip-rule="evenodd" d="M14.2418 1.95089V21.4604H16.617L16.6154 1.95089L15.4561 0L14.2418 1.95089ZM9.49454 21.4604H11.8682V5.85323L9.49454 7.80412V21.4604ZM7.11161 21.4604H4.74125V13.6639L7.11161 11.7059V21.4604ZM0 21.4604H2.37036V17.5586L0 19.5095V21.4604ZM0 23.4112H7.11162V26.3379H0V23.4112ZM23.7411 23.4113H30.8528V26.3379H23.7411V23.4113ZM9.48202 23.4161H10.8367L11.6211 24.7287V23.4161H12.6998V26.3373H11.2281L10.5608 24.993V26.3373H9.48202V23.4161ZM17.169 23.4161V26.3324H16.0619L16.0597 25.3479H14.754L14.7464 26.3324H13.6524V23.4161H14.7464L14.748 24.3968H16.0761L16.0744 23.4161H17.169ZM21.3611 23.4178L21.3627 24.3968H19.2171L19.2188 25.348H21.3611V26.3308H18.1449V23.4178H21.3611ZM30.8554 21.4604H28.4851V17.5962L30.8554 19.528V21.4604ZM23.7378 21.4604H26.1098V13.6639L23.7378 11.7059V21.4604ZM21.361 21.4604H18.9907V5.83851L21.361 7.79814V21.4604ZM1.13652 28.9407C1.32157 28.9407 1.49193 28.8353 1.49193 28.6125C1.49193 28.4165 1.33681 28.2882 1.13652 28.2882C0.936763 28.2882 0.777832 28.4165 0.777832 28.6125C0.777832 28.8353 0.948193 28.9407 1.13652 28.9407ZM1.42766 30.5066H1.64047V29.2639H2.37363V31.2083H1.31281C0.477338 31.2083 0 30.7594 0 29.9825V29.2639H0.733696V29.8995C0.733696 30.3292 1.01346 30.5066 1.42766 30.5066ZM10.9385 30.1676C10.9385 30.4269 10.804 30.5711 10.582 30.5711C10.3664 30.5711 10.2287 30.434 10.2287 30.1823V29.2579H9.56852V30.0851C9.56852 30.4597 9.27189 30.5389 9.07431 30.5389H8.89415V29.2585H8.2372V30.5389H7.97595H7.90519H6.50801V30.4018C6.50801 29.6063 6.13735 29.2459 5.40584 29.2459H5.03137L5.59307 28.2882H4.79134L4.29005 29.2497C4.29386 29.5342 4.39238 29.7684 4.4947 29.9159H5.49074C5.70628 29.9159 5.84398 30.0453 5.84398 30.2795V30.5389H4.20514H4.13439H3.45349V28.2888H2.79653V31.2088H4.13439H4.20514H7.90519H7.97595H9.07431C9.40633 31.2088 9.67139 31.1007 9.85155 30.9063C10.0001 31.1296 10.2647 31.2088 10.5825 31.2088C11.2923 31.2088 11.596 30.8594 11.596 30.096V28.9904H10.939V30.1676H10.9385ZM12.8995 31.5828C12.8321 31.5828 12.7863 31.626 12.7863 31.691H12.7869V31.7226H13.1755V32H12.4478V31.7625C12.4478 31.4676 12.635 31.3486 12.8963 31.3486H13.0797V31.5828H12.8995ZM13.0961 28.9904H12.4391V30.2456H13.0961V28.9904ZM14.6314 30.5383H14.8927H14.8938V28.2888H15.5507V31.2088H14.6325H14.5618C14.2651 31.2083 14.0213 31.0827 13.9119 30.8845C13.7176 31.1007 13.4101 31.2088 12.9828 31.2088H12.1528L12.0183 30.5389H13.0601C13.3426 30.5389 13.5086 30.3876 13.5086 30.1212V28.2888H14.1688V30.0671V30.1173C14.19 30.3942 14.3239 30.5383 14.5607 30.5383H14.6314ZM17.2397 28.908C17.4198 28.908 17.5788 28.8069 17.5788 28.6022C17.5788 28.4149 17.4302 28.2926 17.2397 28.2926C17.0524 28.2926 16.9044 28.4149 16.9044 28.6022C16.9044 28.8069 17.0633 28.908 17.2397 28.908ZM18.3663 28.6022C18.3663 28.8069 18.2074 28.908 18.0272 28.908C17.8509 28.908 17.692 28.8069 17.692 28.6022C17.692 28.4149 17.8367 28.2926 18.0272 28.2926C18.2216 28.2926 18.3663 28.4149 18.3663 28.6022ZM20.0368 31.3846C19.8496 31.3846 19.7015 31.5036 19.7015 31.6904C19.7015 31.8957 19.8605 32 20.0368 32C20.217 32 20.3759 31.8957 20.3759 31.6904C20.3759 31.5036 20.2273 31.3846 20.0368 31.3846ZM20.489 31.6904C20.489 31.5036 20.6338 31.3846 20.8243 31.3846C21.0186 31.3846 21.1634 31.5036 21.1634 31.6904C21.1634 31.8957 21.0045 32 20.8243 32C20.648 32 20.489 31.8957 20.489 31.6904ZM21.9227 28.9112C22.099 28.9112 22.2618 28.8102 22.2618 28.5978C22.2618 28.4105 22.1132 28.2882 21.9227 28.2882C21.7322 28.2882 21.5803 28.4105 21.5803 28.5978C21.5798 28.8102 21.7425 28.9112 21.9227 28.9112ZM23.469 29.1094H24.1716C24.9135 29.1127 25.3337 29.5484 25.3331 30.3046V31.2083H22.5502H22.5246H21.3468H21.276H19.6018H18.5296H17.7164H17.6353C16.968 31.2083 16.5228 30.7906 16.5228 30.1643V30.1605C16.5228 29.5342 16.9996 29.1132 17.7164 29.1094V28.9904H18.3772V30.5389H18.5301H19.6024H20.0753V29.2519H20.7323V30.5389H21.276H21.3468H21.5906V29.2519H22.2476V30.5389H22.5252H22.5508H22.812V28.2888H23.469V29.1094ZM17.5749 30.5383H17.7164V29.7783H17.5749C17.3381 29.7783 17.1406 29.9115 17.1406 30.1599V30.1638C17.1406 30.4051 17.3381 30.5383 17.5749 30.5383ZM23.469 30.5383H24.6735V30.1856C24.6735 29.9295 24.5042 29.7821 24.232 29.7821H23.469V30.5383ZM29.0229 30.5383H28.7627H28.692H27.6143V29.1088H27.6105H27.5783H26.9568C26.2361 29.1088 25.7561 29.5298 25.7561 30.1599V30.1637C25.7561 30.79 26.2013 31.2077 26.8686 31.2077H26.9497C26.9252 31.3448 26.8153 31.3808 26.6422 31.3808C26.4234 31.3808 26.197 31.3628 25.9994 31.3267L26.1088 31.9568C26.2922 31.989 26.4653 32 26.6454 32C27.2142 32 27.5321 31.7805 27.599 31.2077H28.6909H28.7616H29.6798V28.2876H29.0229V30.5383ZM26.9502 30.5383H26.8087C26.572 30.5383 26.3744 30.4051 26.3744 30.1637V30.1599C26.3744 29.9115 26.572 29.7783 26.8087 29.7783H26.9502V30.5383ZM30.2002 28.2882H30.8571V31.2083H30.2002V28.2882Z" fill="white"/>
</svg>
