<svg width="200" height="250" viewBox="0 0 200 250" fill="none" xmlns="http://www.w3.org/2000/svg">
<path opacity="0.5" d="M99.7999 158.621C142.563 158.621 177.23 123.875 177.23 81.014C177.23 38.153 142.563 3.40732 99.7999 3.40732C57.0365 3.40732 22.3699 38.153 22.3699 81.014C22.3699 123.875 57.0365 158.621 99.7999 158.621Z" fill="#EDEFF0"/>
<path d="M149.497 40.0793L88.9104 37.428C84.7277 37.2449 81.189 40.495 81.0064 44.6872L77.0385 135.775C76.8558 139.967 80.0985 143.514 84.2812 143.697L144.868 146.348C149.051 146.531 152.59 143.281 152.772 139.089L156.74 48.0013C156.923 43.8091 153.68 40.2623 149.497 40.0793Z" fill="#EDEFF0" stroke="#909A9F" stroke-width="2.80454"/>
<path d="M106.06 21.525L45.9343 29.4587C40.5975 30.1629 36.8408 35.07 37.5434 40.4189L49.4169 130.813C50.1195 136.162 55.0154 139.927 60.3522 139.223L120.478 131.289C125.815 130.585 129.572 125.678 128.869 120.329L116.995 29.935C116.293 24.5861 111.397 20.8208 106.06 21.525Z" fill="white" stroke="#909A9F" stroke-width="2.80454"/>
<path d="M38.6171 40.2773C37.9926 35.5227 41.3319 31.1609 46.0757 30.5349L106.201 22.6012C110.945 21.9752 115.297 25.3221 115.922 30.0767L118.042 46.2186L40.7374 56.4191L38.6171 40.2773Z" fill="#EDEFF0"/>
<path d="M130.347 27.6252C130.94 27.5469 131.358 27.0017 131.28 26.4074C131.201 25.8131 130.657 25.3947 130.065 25.4729L122.549 26.4647C121.956 26.5429 121.538 27.0881 121.616 27.6825C121.695 28.2768 122.239 28.6952 122.831 28.6169L130.347 27.6252Z" fill="#909A9F" stroke="#909A9F" stroke-width="1.40227"/>
<path d="M104.829 8.0026C104.751 7.40827 104.207 6.9899 103.614 7.06815C103.021 7.14639 102.603 7.69162 102.681 8.28595L103.671 15.8188C103.749 16.4131 104.293 16.8315 104.886 16.7533C105.479 16.675 105.896 16.1298 105.818 15.5355L104.829 8.0026Z" fill="#909A9F" stroke="#909A9F" stroke-width="1.40227"/>
<path d="M122.128 12.6486C122.492 12.173 122.403 11.4916 121.928 11.1267C121.454 10.7618 120.774 10.8515 120.41 11.327L115.795 17.3548C115.431 17.8304 115.521 18.5118 115.995 18.8767C116.47 19.2416 117.149 19.1519 117.514 18.6763L122.128 12.6486Z" fill="#909A9F" stroke="#909A9F" stroke-width="1.40227"/>
<path d="M108.944 51.7979L50.966 59.4483C49.78 59.6048 48.9452 60.6953 49.1013 61.8839C49.2574 63.0726 50.3454 63.9093 51.5314 63.7528L109.51 56.1024C110.696 55.9459 111.531 54.8555 111.374 53.6668C111.218 52.4782 110.13 51.6414 108.944 51.7979Z" fill="#EDEFF0"/>
<path d="M111.773 73.3201L53.7941 80.9706C52.6081 81.1271 51.7733 82.2175 51.9294 83.4062C52.0856 84.5948 53.1735 85.4315 54.3595 85.2751L112.338 77.6246C113.524 77.4681 114.359 76.3777 114.203 75.189C114.046 74.0004 112.959 73.1637 111.773 73.3201Z" fill="#EDEFF0"/>
<path d="M114.598 94.8431L56.6193 102.493C55.4333 102.65 54.5985 103.74 54.7546 104.929C54.9108 106.118 55.9987 106.954 57.1847 106.798L115.163 99.1475C116.349 98.9911 117.184 97.9006 117.028 96.712C116.872 95.5233 115.784 94.6866 114.598 94.8431Z" fill="#EDEFF0"/>
<path d="M70.3496 65.6488L52.0972 68.0573C50.9112 68.2138 50.0764 69.3042 50.2325 70.4929C50.3887 71.6815 51.4766 72.5183 52.6626 72.3618L70.915 69.9533C72.101 69.7968 72.9358 68.7064 72.7797 67.5177C72.6236 66.3291 71.5356 65.4923 70.3496 65.6488Z" fill="#EDEFF0"/>
<path d="M73.1747 87.1717L54.9223 89.5802C53.7363 89.7367 52.9015 90.8271 53.0576 92.0158C53.2137 93.2044 54.3017 94.0412 55.4877 93.8847L73.7401 91.4762C74.9261 91.3197 75.7609 90.2293 75.6048 89.0406C75.4486 87.852 74.3607 87.0152 73.1747 87.1717Z" fill="#EDEFF0"/>
<path d="M76.003 108.694L57.7505 111.102C56.5646 111.259 55.7297 112.349 55.8859 113.538C56.042 114.727 57.13 115.563 58.3159 115.407L76.5684 112.998C77.7543 112.842 78.5891 111.751 78.433 110.563C78.2769 109.374 77.1889 108.537 76.003 108.694Z" fill="#EDEFF0"/>
<path d="M10.8473 203.364V215H9.48367L3.14276 205.864H3.02912V215H1.62003V203.364H2.98366L9.3473 212.523H9.46094V203.364H10.8473ZM17.0305 215.182C16.2427 215.182 15.5514 214.994 14.9567 214.619C14.3658 214.244 13.9036 213.72 13.5703 213.045C13.2408 212.371 13.076 211.583 13.076 210.682C13.076 209.773 13.2408 208.979 13.5703 208.301C13.9036 207.623 14.3658 207.097 14.9567 206.722C15.5514 206.347 16.2427 206.159 17.0305 206.159C17.8184 206.159 18.5078 206.347 19.0987 206.722C19.6934 207.097 20.1555 207.623 20.4851 208.301C20.8184 208.979 20.9851 209.773 20.9851 210.682C20.9851 211.583 20.8184 212.371 20.4851 213.045C20.1555 213.72 19.6934 214.244 19.0987 214.619C18.5078 214.994 17.8184 215.182 17.0305 215.182ZM17.0305 213.977C17.629 213.977 18.1214 213.824 18.5078 213.517C18.8942 213.21 19.1802 212.807 19.3658 212.307C19.5514 211.807 19.6442 211.265 19.6442 210.682C19.6442 210.098 19.5514 209.555 19.3658 209.051C19.1802 208.547 18.8942 208.14 18.5078 207.83C18.1214 207.519 17.629 207.364 17.0305 207.364C16.4321 207.364 15.9396 207.519 15.5533 207.83C15.1669 208.14 14.8809 208.547 14.6953 209.051C14.5097 209.555 14.4169 210.098 14.4169 210.682C14.4169 211.265 14.5097 211.807 14.6953 212.307C14.8809 212.807 15.1669 213.21 15.5533 213.517C15.9396 213.824 16.4321 213.977 17.0305 213.977ZM27.532 215V206.273H28.8274V207.591H28.9183C29.0774 207.159 29.3653 206.809 29.782 206.54C30.1986 206.271 30.6683 206.136 31.1911 206.136C31.2895 206.136 31.4126 206.138 31.5604 206.142C31.7081 206.146 31.8198 206.152 31.8956 206.159V207.523C31.8501 207.511 31.746 207.494 31.5831 207.472C31.424 207.445 31.2554 207.432 31.0774 207.432C30.6532 207.432 30.2744 207.521 29.9411 207.699C29.6115 207.873 29.3501 208.116 29.157 208.426C28.9676 208.733 28.8729 209.083 28.8729 209.477V215H27.532ZM36.8786 215.182C36.0376 215.182 35.3123 214.996 34.7024 214.625C34.0964 214.25 33.6286 213.727 33.299 213.057C32.9732 212.383 32.8104 211.598 32.8104 210.705C32.8104 209.811 32.9732 209.023 33.299 208.341C33.6286 207.655 34.0869 207.121 34.674 206.739C35.2649 206.352 35.9543 206.159 36.7422 206.159C37.1967 206.159 37.6456 206.235 38.0888 206.386C38.532 206.538 38.9354 206.784 39.299 207.125C39.6626 207.462 39.9524 207.909 40.1683 208.466C40.3842 209.023 40.4922 209.708 40.4922 210.523V211.091H33.7649V209.932H39.1286C39.1286 209.439 39.0301 209 38.8331 208.614C38.6399 208.227 38.3634 207.922 38.0036 207.699C37.6475 207.475 37.227 207.364 36.7422 207.364C36.2081 207.364 35.746 207.496 35.3558 207.761C34.9695 208.023 34.6721 208.364 34.4638 208.784C34.2554 209.205 34.1513 209.655 34.1513 210.136V210.909C34.1513 211.568 34.2649 212.127 34.4922 212.585C34.7232 213.04 35.0433 213.386 35.4524 213.625C35.8615 213.86 36.3369 213.977 36.8786 213.977C37.2308 213.977 37.549 213.928 37.8331 213.83C38.121 213.727 38.3691 213.576 38.5774 213.375C38.7857 213.17 38.9467 212.917 39.0604 212.614L40.3558 212.977C40.2195 213.417 39.9903 213.803 39.6683 214.136C39.3464 214.466 38.9486 214.723 38.4751 214.909C38.0017 215.091 37.4695 215.182 36.8786 215.182ZM48.7138 208.227L47.5092 208.568C47.4335 208.367 47.3217 208.172 47.174 207.983C47.0301 207.79 46.8331 207.631 46.5831 207.506C46.3331 207.381 46.013 207.318 45.6229 207.318C45.0888 207.318 44.6437 207.441 44.2876 207.688C43.9354 207.93 43.7592 208.239 43.7592 208.614C43.7592 208.947 43.8804 209.21 44.1229 209.403C44.3653 209.597 44.7441 209.758 45.2592 209.886L46.5547 210.205C47.335 210.394 47.9164 210.684 48.299 211.074C48.6816 211.46 48.8729 211.958 48.8729 212.568C48.8729 213.068 48.7289 213.515 48.4411 213.909C48.157 214.303 47.7592 214.614 47.2479 214.841C46.7365 215.068 46.1418 215.182 45.4638 215.182C44.5736 215.182 43.8369 214.989 43.2536 214.602C42.6702 214.216 42.3009 213.652 42.1456 212.909L43.4183 212.591C43.5395 213.061 43.7687 213.413 44.1058 213.648C44.4467 213.883 44.8918 214 45.4411 214C46.0661 214 46.5623 213.867 46.9297 213.602C47.3009 213.333 47.4865 213.011 47.4865 212.636C47.4865 212.333 47.3804 212.08 47.1683 211.875C46.9562 211.667 46.6304 211.511 46.1911 211.409L44.7365 211.068C43.9373 210.879 43.3501 210.585 42.9751 210.188C42.6039 209.786 42.4183 209.284 42.4183 208.682C42.4183 208.189 42.5566 207.754 42.8331 207.375C43.1134 206.996 43.4941 206.699 43.9751 206.483C44.46 206.267 45.0092 206.159 45.6229 206.159C46.4865 206.159 47.1645 206.348 47.657 206.727C48.1532 207.106 48.5054 207.606 48.7138 208.227ZM56.3913 211.432V206.273H57.7322V215H56.3913V213.523H56.3004C56.0959 213.966 55.7777 214.343 55.3459 214.653C54.9141 214.96 54.3686 215.114 53.7095 215.114C53.1641 215.114 52.6792 214.994 52.255 214.756C51.8307 214.513 51.4974 214.15 51.255 213.665C51.0125 213.176 50.8913 212.561 50.8913 211.818V206.273H52.2322V211.727C52.2322 212.364 52.4103 212.871 52.7663 213.25C53.1262 213.629 53.5845 213.818 54.1413 213.818C54.4747 213.818 54.8137 213.733 55.1584 213.562C55.5069 213.392 55.7985 213.131 56.0334 212.778C56.272 212.426 56.3913 211.977 56.3913 211.432ZM61.5291 203.364V215H60.1882V203.364H61.5291ZM67.7805 206.273V207.409H63.2578V206.273H67.7805ZM64.576 204.182H65.9169V212.5C65.9169 212.879 65.9718 213.163 66.0817 213.352C66.1953 213.538 66.3393 213.663 66.5135 213.727C66.6915 213.788 66.879 213.818 67.076 213.818C67.2237 213.818 67.3449 213.811 67.4396 213.795C67.5343 213.777 67.6101 213.761 67.6669 213.75L67.9396 214.955C67.8487 214.989 67.7218 215.023 67.5589 215.057C67.3961 215.095 67.1896 215.114 66.9396 215.114C66.5608 215.114 66.1896 215.032 65.826 214.869C65.4661 214.706 65.1669 214.458 64.9283 214.125C64.6934 213.792 64.576 213.371 64.576 212.864V204.182ZM75.8232 208.227L74.6186 208.568C74.5429 208.367 74.4311 208.172 74.2834 207.983C74.1394 207.79 73.9425 207.631 73.6925 207.506C73.4425 207.381 73.1224 207.318 72.7322 207.318C72.1982 207.318 71.7531 207.441 71.397 207.688C71.0447 207.93 70.8686 208.239 70.8686 208.614C70.8686 208.947 70.9898 209.21 71.2322 209.403C71.4747 209.597 71.8535 209.758 72.3686 209.886L73.6641 210.205C74.4444 210.394 75.0258 210.684 75.4084 211.074C75.791 211.46 75.9822 211.958 75.9822 212.568C75.9822 213.068 75.8383 213.515 75.5504 213.909C75.2663 214.303 74.8686 214.614 74.3572 214.841C73.8459 215.068 73.2512 215.182 72.5732 215.182C71.683 215.182 70.9463 214.989 70.3629 214.602C69.7796 214.216 69.4103 213.652 69.255 212.909L70.5277 212.591C70.6489 213.061 70.8781 213.413 71.2152 213.648C71.5561 213.883 72.0012 214 72.5504 214C73.1754 214 73.6716 213.867 74.0391 213.602C74.4103 213.333 74.5959 213.011 74.5959 212.636C74.5959 212.333 74.4898 212.08 74.2777 211.875C74.0656 211.667 73.7398 211.511 73.3004 211.409L71.8459 211.068C71.0466 210.879 70.4595 210.585 70.0845 210.188C69.7133 209.786 69.5277 209.284 69.5277 208.682C69.5277 208.189 69.666 207.754 69.9425 207.375C70.2228 206.996 70.6035 206.699 71.0845 206.483C71.5694 206.267 72.1186 206.159 72.7322 206.159C73.5959 206.159 74.2739 206.348 74.7663 206.727C75.2625 207.106 75.6148 207.606 75.8232 208.227ZM86.3871 206.273V207.409H81.6825V206.273H86.3871ZM83.0916 215V205.068C83.0916 204.568 83.209 204.152 83.4439 203.818C83.6787 203.485 83.9837 203.235 84.3587 203.068C84.7337 202.902 85.1295 202.818 85.5462 202.818C85.8757 202.818 86.1446 202.845 86.353 202.898C86.5613 202.951 86.7166 203 86.8189 203.045L86.4325 204.205C86.3643 204.182 86.2696 204.153 86.1484 204.119C86.031 204.085 85.8757 204.068 85.6825 204.068C85.2393 204.068 84.9193 204.18 84.7223 204.403C84.5291 204.627 84.4325 204.955 84.4325 205.386V215H83.0916ZM91.4524 215.182C90.6645 215.182 89.9732 214.994 89.3786 214.619C88.7876 214.244 88.3255 213.72 87.9922 213.045C87.6626 212.371 87.4979 211.583 87.4979 210.682C87.4979 209.773 87.6626 208.979 87.9922 208.301C88.3255 207.623 88.7876 207.097 89.3786 206.722C89.9732 206.347 90.6645 206.159 91.4524 206.159C92.2403 206.159 92.9297 206.347 93.5206 206.722C94.1153 207.097 94.5774 207.623 94.907 208.301C95.2403 208.979 95.407 209.773 95.407 210.682C95.407 211.583 95.2403 212.371 94.907 213.045C94.5774 213.72 94.1153 214.244 93.5206 214.619C92.9297 214.994 92.2403 215.182 91.4524 215.182ZM91.4524 213.977C92.0509 213.977 92.5433 213.824 92.9297 213.517C93.3161 213.21 93.602 212.807 93.7876 212.307C93.9732 211.807 94.0661 211.265 94.0661 210.682C94.0661 210.098 93.9732 209.555 93.7876 209.051C93.602 208.547 93.3161 208.14 92.9297 207.83C92.5433 207.519 92.0509 207.364 91.4524 207.364C90.8539 207.364 90.3615 207.519 89.9751 207.83C89.5888 208.14 89.3028 208.547 89.1172 209.051C88.9316 209.555 88.8388 210.098 88.8388 210.682C88.8388 211.265 88.9316 211.807 89.1172 212.307C89.3028 212.807 89.5888 213.21 89.9751 213.517C90.3615 213.824 90.8539 213.977 91.4524 213.977ZM97.4538 215V206.273H98.7493V207.591H98.8402C98.9993 207.159 99.2872 206.809 99.7038 206.54C100.121 206.271 100.59 206.136 101.113 206.136C101.211 206.136 101.335 206.138 101.482 206.142C101.63 206.146 101.742 206.152 101.817 206.159V207.523C101.772 207.511 101.668 207.494 101.505 207.472C101.346 207.445 101.177 207.432 100.999 207.432C100.575 207.432 100.196 207.521 99.8629 207.699C99.5334 207.873 99.272 208.116 99.0788 208.426C98.8894 208.733 98.7947 209.083 98.7947 209.477V215H97.4538ZM108.771 218.273C108.543 218.273 108.341 218.254 108.163 218.216C107.985 218.182 107.862 218.148 107.793 218.114L108.134 216.932C108.46 217.015 108.748 217.045 108.998 217.023C109.248 217 109.469 216.888 109.663 216.688C109.86 216.491 110.04 216.17 110.202 215.727L110.452 215.045L107.225 206.273H108.68L111.089 213.227H111.18L113.589 206.273H115.043L111.339 216.273C111.172 216.723 110.966 217.097 110.719 217.392C110.473 217.691 110.187 217.913 109.862 218.057C109.54 218.201 109.176 218.273 108.771 218.273ZM120.046 215.182C119.258 215.182 118.567 214.994 117.972 214.619C117.381 214.244 116.919 213.72 116.586 213.045C116.256 212.371 116.092 211.583 116.092 210.682C116.092 209.773 116.256 208.979 116.586 208.301C116.919 207.623 117.381 207.097 117.972 206.722C118.567 206.347 119.258 206.159 120.046 206.159C120.834 206.159 121.523 206.347 122.114 206.722C122.709 207.097 123.171 207.623 123.501 208.301C123.834 208.979 124.001 209.773 124.001 210.682C124.001 211.583 123.834 212.371 123.501 213.045C123.171 213.72 122.709 214.244 122.114 214.619C121.523 214.994 120.834 215.182 120.046 215.182ZM120.046 213.977C120.645 213.977 121.137 213.824 121.523 213.517C121.91 213.21 122.196 212.807 122.381 212.307C122.567 211.807 122.66 211.265 122.66 210.682C122.66 210.098 122.567 209.555 122.381 209.051C122.196 208.547 121.91 208.14 121.523 207.83C121.137 207.519 120.645 207.364 120.046 207.364C119.448 207.364 118.955 207.519 118.569 207.83C118.183 208.14 117.897 208.547 117.711 209.051C117.525 209.555 117.433 210.098 117.433 210.682C117.433 211.265 117.525 211.807 117.711 212.307C117.897 212.807 118.183 213.21 118.569 213.517C118.955 213.824 119.448 213.977 120.046 213.977ZM131.548 211.432V206.273H132.888V215H131.548V213.523H131.457C131.252 213.966 130.934 214.343 130.502 214.653C130.07 214.96 129.525 215.114 128.866 215.114C128.32 215.114 127.835 214.994 127.411 214.756C126.987 214.513 126.654 214.15 126.411 213.665C126.169 213.176 126.048 212.561 126.048 211.818V206.273H127.388V211.727C127.388 212.364 127.567 212.871 127.923 213.25C128.282 213.629 128.741 213.818 129.298 213.818C129.631 213.818 129.97 213.733 130.315 213.562C130.663 213.392 130.955 213.131 131.19 212.778C131.428 212.426 131.548 211.977 131.548 211.432ZM135.344 215V206.273H136.64V207.591H136.731C136.89 207.159 137.178 206.809 137.594 206.54C138.011 206.271 138.481 206.136 139.004 206.136C139.102 206.136 139.225 206.138 139.373 206.142C139.521 206.146 139.632 206.152 139.708 206.159V207.523C139.663 207.511 139.558 207.494 139.396 207.472C139.237 207.445 139.068 207.432 138.89 207.432C138.466 207.432 138.087 207.521 137.754 207.699C137.424 207.873 137.163 208.116 136.969 208.426C136.78 208.733 136.685 209.083 136.685 209.477V215H135.344ZM151.979 208.227L150.775 208.568C150.699 208.367 150.587 208.172 150.44 207.983C150.296 207.79 150.099 207.631 149.849 207.506C149.599 207.381 149.279 207.318 148.888 207.318C148.354 207.318 147.909 207.441 147.553 207.688C147.201 207.93 147.025 208.239 147.025 208.614C147.025 208.947 147.146 209.21 147.388 209.403C147.631 209.597 148.01 209.758 148.525 209.886L149.82 210.205C150.601 210.394 151.182 210.684 151.565 211.074C151.947 211.46 152.138 211.958 152.138 212.568C152.138 213.068 151.995 213.515 151.707 213.909C151.423 214.303 151.025 214.614 150.513 214.841C150.002 215.068 149.407 215.182 148.729 215.182C147.839 215.182 147.103 214.989 146.519 214.602C145.936 214.216 145.567 213.652 145.411 212.909L146.684 212.591C146.805 213.061 147.034 213.413 147.371 213.648C147.712 213.883 148.157 214 148.707 214C149.332 214 149.828 213.867 150.195 213.602C150.567 213.333 150.752 213.011 150.752 212.636C150.752 212.333 150.646 212.08 150.434 211.875C150.222 211.667 149.896 211.511 149.457 211.409L148.002 211.068C147.203 210.879 146.616 210.585 146.241 210.188C145.87 209.786 145.684 209.284 145.684 208.682C145.684 208.189 145.822 207.754 146.099 207.375C146.379 206.996 146.76 206.699 147.241 206.483C147.726 206.267 148.275 206.159 148.888 206.159C149.752 206.159 150.43 206.348 150.923 206.727C151.419 207.106 151.771 207.606 151.979 208.227ZM157.816 215.182C156.975 215.182 156.25 214.996 155.64 214.625C155.034 214.25 154.566 213.727 154.237 213.057C153.911 212.383 153.748 211.598 153.748 210.705C153.748 209.811 153.911 209.023 154.237 208.341C154.566 207.655 155.024 207.121 155.612 206.739C156.202 206.352 156.892 206.159 157.68 206.159C158.134 206.159 158.583 206.235 159.026 206.386C159.469 206.538 159.873 206.784 160.237 207.125C160.6 207.462 160.89 207.909 161.106 208.466C161.322 209.023 161.43 209.708 161.43 210.523V211.091H154.702V209.932H160.066C160.066 209.439 159.968 209 159.771 208.614C159.577 208.227 159.301 207.922 158.941 207.699C158.585 207.475 158.165 207.364 157.68 207.364C157.146 207.364 156.683 207.496 156.293 207.761C155.907 208.023 155.61 208.364 155.401 208.784C155.193 209.205 155.089 209.655 155.089 210.136V210.909C155.089 211.568 155.202 212.127 155.43 212.585C155.661 213.04 155.981 213.386 156.39 213.625C156.799 213.86 157.274 213.977 157.816 213.977C158.168 213.977 158.487 213.928 158.771 213.83C159.058 213.727 159.307 213.576 159.515 213.375C159.723 213.17 159.884 212.917 159.998 212.614L161.293 212.977C161.157 213.417 160.928 213.803 160.606 214.136C160.284 214.466 159.886 214.723 159.413 214.909C158.939 215.091 158.407 215.182 157.816 215.182ZM166.038 215.205C165.485 215.205 164.983 215.1 164.532 214.892C164.081 214.68 163.723 214.375 163.458 213.977C163.193 213.576 163.06 213.091 163.06 212.523C163.06 212.023 163.159 211.617 163.356 211.307C163.553 210.992 163.816 210.746 164.146 210.568C164.475 210.39 164.839 210.258 165.237 210.17C165.638 210.08 166.041 210.008 166.447 209.955C166.977 209.886 167.407 209.835 167.737 209.801C168.07 209.763 168.312 209.701 168.464 209.614C168.619 209.527 168.697 209.375 168.697 209.159V209.114C168.697 208.553 168.543 208.117 168.237 207.807C167.933 207.496 167.473 207.341 166.856 207.341C166.216 207.341 165.714 207.481 165.35 207.761C164.987 208.042 164.731 208.341 164.583 208.659L163.31 208.205C163.538 207.674 163.841 207.261 164.219 206.966C164.602 206.667 165.019 206.458 165.469 206.341C165.924 206.22 166.371 206.159 166.81 206.159C167.091 206.159 167.413 206.193 167.776 206.261C168.144 206.326 168.498 206.46 168.839 206.665C169.183 206.869 169.469 207.178 169.697 207.591C169.924 208.004 170.038 208.557 170.038 209.25V215H168.697V213.818H168.629C168.538 214.008 168.386 214.21 168.174 214.426C167.962 214.642 167.68 214.826 167.327 214.977C166.975 215.129 166.545 215.205 166.038 215.205ZM166.242 214C166.772 214 167.219 213.896 167.583 213.688C167.951 213.479 168.227 213.21 168.413 212.881C168.602 212.551 168.697 212.205 168.697 211.841V210.614C168.64 210.682 168.515 210.744 168.322 210.801C168.132 210.854 167.913 210.902 167.663 210.943C167.416 210.981 167.176 211.015 166.941 211.045C166.71 211.072 166.522 211.095 166.379 211.114C166.03 211.159 165.704 211.233 165.401 211.335C165.102 211.434 164.86 211.583 164.674 211.784C164.492 211.981 164.401 212.25 164.401 212.591C164.401 213.057 164.574 213.409 164.918 213.648C165.267 213.883 165.708 214 166.242 214ZM172.485 215V206.273H173.781V207.591H173.871C174.031 207.159 174.318 206.809 174.735 206.54C175.152 206.271 175.621 206.136 176.144 206.136C176.243 206.136 176.366 206.138 176.513 206.142C176.661 206.146 176.773 206.152 176.849 206.159V207.523C176.803 207.511 176.699 207.494 176.536 207.472C176.377 207.445 176.209 207.432 176.031 207.432C175.606 207.432 175.228 207.521 174.894 207.699C174.565 207.873 174.303 208.116 174.11 208.426C173.921 208.733 173.826 209.083 173.826 209.477V215H172.485ZM181.718 215.182C180.9 215.182 180.195 214.989 179.604 214.602C179.013 214.216 178.559 213.684 178.241 213.006C177.923 212.328 177.763 211.553 177.763 210.682C177.763 209.795 177.926 209.013 178.252 208.335C178.582 207.653 179.04 207.121 179.627 206.739C180.218 206.352 180.907 206.159 181.695 206.159C182.309 206.159 182.862 206.273 183.354 206.5C183.847 206.727 184.25 207.045 184.565 207.455C184.879 207.864 185.074 208.341 185.15 208.886H183.809C183.707 208.489 183.479 208.136 183.127 207.83C182.779 207.519 182.309 207.364 181.718 207.364C181.195 207.364 180.737 207.5 180.343 207.773C179.953 208.042 179.648 208.422 179.428 208.915C179.212 209.403 179.104 209.977 179.104 210.636C179.104 211.311 179.21 211.898 179.423 212.398C179.638 212.898 179.942 213.286 180.332 213.562C180.726 213.839 181.188 213.977 181.718 213.977C182.067 213.977 182.383 213.917 182.667 213.795C182.951 213.674 183.192 213.5 183.388 213.273C183.585 213.045 183.726 212.773 183.809 212.455H185.15C185.074 212.97 184.887 213.434 184.587 213.847C184.292 214.256 183.9 214.581 183.411 214.824C182.926 215.062 182.362 215.182 181.718 215.182ZM188.451 209.75V215H187.11V203.364H188.451V207.636H188.565C188.769 207.186 189.076 206.828 189.485 206.562C189.898 206.294 190.447 206.159 191.133 206.159C191.728 206.159 192.248 206.278 192.695 206.517C193.142 206.752 193.489 207.114 193.735 207.602C193.985 208.087 194.11 208.705 194.11 209.455V215H192.769V209.545C192.769 208.852 192.589 208.316 192.229 207.938C191.873 207.555 191.379 207.364 190.746 207.364C190.307 207.364 189.913 207.456 189.565 207.642C189.22 207.828 188.947 208.098 188.746 208.455C188.549 208.811 188.451 209.242 188.451 209.75ZM198.336 203.364L198.222 211.727H196.904L196.79 203.364H198.336ZM197.563 215.091C197.283 215.091 197.042 214.991 196.842 214.79C196.641 214.589 196.54 214.348 196.54 214.068C196.54 213.788 196.641 213.547 196.842 213.347C197.042 213.146 197.283 213.045 197.563 213.045C197.844 213.045 198.084 213.146 198.285 213.347C198.486 213.547 198.586 213.788 198.586 214.068C198.586 214.254 198.539 214.424 198.444 214.58C198.353 214.735 198.23 214.86 198.075 214.955C197.923 215.045 197.753 215.091 197.563 215.091ZM22.6243 231.614V230.364H31.3516V231.614H27.6925V242H26.2834V231.614H22.6243ZM32.4382 242V233.273H33.7337V234.591H33.8246C33.9837 234.159 34.2715 233.809 34.6882 233.54C35.1049 233.271 35.5746 233.136 36.0973 233.136C36.1958 233.136 36.3189 233.138 36.4666 233.142C36.6143 233.146 36.7261 233.152 36.8018 233.159V234.523C36.7564 234.511 36.6522 234.494 36.4893 234.472C36.3303 234.445 36.1617 234.432 35.9837 234.432C35.5594 234.432 35.1806 234.521 34.8473 234.699C34.5178 234.873 34.2564 235.116 34.0632 235.426C33.8738 235.733 33.7791 236.083 33.7791 236.477V242H32.4382ZM39.5206 245.273C39.2933 245.273 39.0907 245.254 38.9126 245.216C38.7346 245.182 38.6115 245.148 38.5433 245.114L38.8842 243.932C39.21 244.015 39.4979 244.045 39.7479 244.023C39.9979 244 40.2195 243.888 40.4126 243.688C40.6096 243.491 40.7895 243.17 40.9524 242.727L41.2024 242.045L37.9751 233.273H39.4297L41.8388 240.227H41.9297L44.3388 233.273H45.7933L42.0888 243.273C41.9221 243.723 41.7157 244.097 41.4695 244.392C41.2232 244.691 40.9373 244.913 40.6115 245.057C40.2895 245.201 39.9259 245.273 39.5206 245.273ZM54.6314 242.205C54.0784 242.205 53.5765 242.1 53.1257 241.892C52.675 241.68 52.317 241.375 52.0518 240.977C51.7867 240.576 51.6541 240.091 51.6541 239.523C51.6541 239.023 51.7526 238.617 51.9496 238.307C52.1465 237.992 52.4098 237.746 52.7393 237.568C53.0689 237.39 53.4325 237.258 53.8303 237.17C54.2318 237.08 54.6352 237.008 55.0405 236.955C55.5708 236.886 56.0007 236.835 56.3303 236.801C56.6636 236.763 56.906 236.701 57.0575 236.614C57.2128 236.527 57.2905 236.375 57.2905 236.159V236.114C57.2905 235.553 57.1371 235.117 56.8303 234.807C56.5272 234.496 56.067 234.341 55.4496 234.341C54.8094 234.341 54.3075 234.481 53.9439 234.761C53.5803 235.042 53.3246 235.341 53.1768 235.659L51.9041 235.205C52.1314 234.674 52.4344 234.261 52.8132 233.966C53.1958 233.667 53.6125 233.458 54.0632 233.341C54.5178 233.22 54.9647 233.159 55.4041 233.159C55.6844 233.159 56.0064 233.193 56.37 233.261C56.7375 233.326 57.0916 233.46 57.4325 233.665C57.7772 233.869 58.0632 234.178 58.2905 234.591C58.5178 235.004 58.6314 235.557 58.6314 236.25V242H57.2905V240.818H57.2223C57.1314 241.008 56.9799 241.21 56.7678 241.426C56.5556 241.642 56.2734 241.826 55.9212 241.977C55.5689 242.129 55.139 242.205 54.6314 242.205ZM54.8359 241C55.3662 241 55.8132 240.896 56.1768 240.688C56.5443 240.479 56.8208 240.21 57.0064 239.881C57.1958 239.551 57.2905 239.205 57.2905 238.841V237.614C57.2337 237.682 57.1087 237.744 56.9155 237.801C56.7261 237.854 56.5064 237.902 56.2564 237.943C56.0102 237.981 55.7696 238.015 55.5348 238.045C55.3037 238.072 55.1162 238.095 54.9723 238.114C54.6238 238.159 54.2981 238.233 53.995 238.335C53.6958 238.434 53.4534 238.583 53.2678 238.784C53.0859 238.981 52.995 239.25 52.995 239.591C52.995 240.057 53.1674 240.409 53.5121 240.648C53.8606 240.883 54.3018 241 54.8359 241ZM62.4197 236.75V242H61.0788V233.273H62.3743V234.636H62.4879C62.6925 234.193 63.0031 233.837 63.4197 233.568C63.8364 233.295 64.3743 233.159 65.0334 233.159C65.6243 233.159 66.1413 233.28 66.5845 233.523C67.0277 233.761 67.3724 234.125 67.6186 234.614C67.8648 235.098 67.9879 235.712 67.9879 236.455V242H66.647V236.545C66.647 235.86 66.469 235.326 66.1129 234.943C65.7569 234.557 65.2682 234.364 64.647 234.364C64.219 234.364 63.8364 234.456 63.4993 234.642C63.166 234.828 62.9027 235.098 62.7095 235.455C62.5163 235.811 62.4197 236.242 62.4197 236.75ZM73.9837 242.182C73.1958 242.182 72.5045 241.994 71.9098 241.619C71.3189 241.244 70.8568 240.72 70.5234 240.045C70.1939 239.371 70.0291 238.583 70.0291 237.682C70.0291 236.773 70.1939 235.979 70.5234 235.301C70.8568 234.623 71.3189 234.097 71.9098 233.722C72.5045 233.347 73.1958 233.159 73.9837 233.159C74.7715 233.159 75.4609 233.347 76.0518 233.722C76.6465 234.097 77.1087 234.623 77.4382 235.301C77.7715 235.979 77.9382 236.773 77.9382 237.682C77.9382 238.583 77.7715 239.371 77.4382 240.045C77.1087 240.72 76.6465 241.244 76.0518 241.619C75.4609 241.994 74.7715 242.182 73.9837 242.182ZM73.9837 240.977C74.5821 240.977 75.0746 240.824 75.4609 240.517C75.8473 240.21 76.1333 239.807 76.3189 239.307C76.5045 238.807 76.5973 238.265 76.5973 237.682C76.5973 237.098 76.5045 236.555 76.3189 236.051C76.1333 235.547 75.8473 235.14 75.4609 234.83C75.0746 234.519 74.5821 234.364 73.9837 234.364C73.3852 234.364 72.8928 234.519 72.5064 234.83C72.12 235.14 71.834 235.547 71.6484 236.051C71.4628 236.555 71.37 237.098 71.37 237.682C71.37 238.265 71.4628 238.807 71.6484 239.307C71.834 239.807 72.12 240.21 72.5064 240.517C72.8928 240.824 73.3852 240.977 73.9837 240.977ZM83.7805 233.273V234.409H79.2578V233.273H83.7805ZM80.576 231.182H81.9169V239.5C81.9169 239.879 81.9718 240.163 82.0817 240.352C82.1953 240.538 82.3393 240.663 82.5135 240.727C82.6915 240.788 82.879 240.818 83.076 240.818C83.2237 240.818 83.3449 240.811 83.4396 240.795C83.5343 240.777 83.6101 240.761 83.6669 240.75L83.9396 241.955C83.8487 241.989 83.7218 242.023 83.5589 242.057C83.3961 242.095 83.1896 242.114 82.9396 242.114C82.5608 242.114 82.1896 242.032 81.826 241.869C81.4661 241.706 81.1669 241.458 80.9283 241.125C80.6934 240.792 80.576 240.371 80.576 239.864V231.182ZM87.326 236.75V242H85.9851V230.364H87.326V234.636H87.4396C87.6442 234.186 87.951 233.828 88.3601 233.562C88.773 233.294 89.3222 233.159 90.0078 233.159C90.6025 233.159 91.1233 233.278 91.5703 233.517C92.0173 233.752 92.3639 234.114 92.6101 234.602C92.8601 235.087 92.9851 235.705 92.9851 236.455V242H91.6442V236.545C91.6442 235.852 91.4643 235.316 91.1044 234.938C90.7483 234.555 90.254 234.364 89.6214 234.364C89.1821 234.364 88.7881 234.456 88.4396 234.642C88.0949 234.828 87.8222 235.098 87.6214 235.455C87.4245 235.811 87.326 236.242 87.326 236.75ZM99.0973 242.182C98.2564 242.182 97.531 241.996 96.9212 241.625C96.3151 241.25 95.8473 240.727 95.5178 240.057C95.192 239.383 95.0291 238.598 95.0291 237.705C95.0291 236.811 95.192 236.023 95.5178 235.341C95.8473 234.655 96.3056 234.121 96.8928 233.739C97.4837 233.352 98.1731 233.159 98.9609 233.159C99.4155 233.159 99.8643 233.235 100.308 233.386C100.751 233.538 101.154 233.784 101.518 234.125C101.881 234.462 102.171 234.909 102.387 235.466C102.603 236.023 102.711 236.708 102.711 237.523V238.091H95.9837V236.932H101.347C101.347 236.439 101.249 236 101.052 235.614C100.859 235.227 100.582 234.922 100.222 234.699C99.8662 234.475 99.4458 234.364 98.9609 234.364C98.4268 234.364 97.9647 234.496 97.5746 234.761C97.1882 235.023 96.8909 235.364 96.6825 235.784C96.4742 236.205 96.37 236.655 96.37 237.136V237.909C96.37 238.568 96.4837 239.127 96.7109 239.585C96.942 240.04 97.2621 240.386 97.6712 240.625C98.0803 240.86 98.5556 240.977 99.0973 240.977C99.4496 240.977 99.7678 240.928 100.052 240.83C100.34 240.727 100.588 240.576 100.796 240.375C101.004 240.17 101.165 239.917 101.279 239.614L102.575 239.977C102.438 240.417 102.209 240.803 101.887 241.136C101.565 241.466 101.167 241.723 100.694 241.909C100.22 242.091 99.6882 242.182 99.0973 242.182ZM104.751 242V233.273H106.046V234.591H106.137C106.296 234.159 106.584 233.809 107.001 233.54C107.417 233.271 107.887 233.136 108.41 233.136C108.508 233.136 108.631 233.138 108.779 233.142C108.927 233.146 109.039 233.152 109.114 233.159V234.523C109.069 234.511 108.965 234.494 108.802 234.472C108.643 234.445 108.474 234.432 108.296 234.432C107.872 234.432 107.493 234.521 107.16 234.699C106.83 234.873 106.569 235.116 106.376 235.426C106.186 235.733 106.092 236.083 106.092 236.477V242H104.751ZM116.454 238.818L116.431 237.159H116.704L120.522 233.273H122.181L118.113 237.386H117.999L116.454 238.818ZM115.204 242V230.364H116.545V242H115.204ZM120.749 242L117.34 237.682L118.295 236.75L122.454 242H120.749ZM127.207 242.182C126.366 242.182 125.64 241.996 125.031 241.625C124.424 241.25 123.957 240.727 123.627 240.057C123.301 239.383 123.138 238.598 123.138 237.705C123.138 236.811 123.301 236.023 123.627 235.341C123.957 234.655 124.415 234.121 125.002 233.739C125.593 233.352 126.282 233.159 127.07 233.159C127.525 233.159 127.974 233.235 128.417 233.386C128.86 233.538 129.263 233.784 129.627 234.125C129.991 234.462 130.281 234.909 130.496 235.466C130.712 236.023 130.82 236.708 130.82 237.523V238.091H124.093V236.932H129.457C129.457 236.439 129.358 236 129.161 235.614C128.968 235.227 128.692 234.922 128.332 234.699C127.976 234.475 127.555 234.364 127.07 234.364C126.536 234.364 126.074 234.496 125.684 234.761C125.298 235.023 125 235.364 124.792 235.784C124.584 236.205 124.479 236.655 124.479 237.136V237.909C124.479 238.568 124.593 239.127 124.82 239.585C125.051 240.04 125.371 240.386 125.781 240.625C126.19 240.86 126.665 240.977 127.207 240.977C127.559 240.977 127.877 240.928 128.161 240.83C128.449 240.727 128.697 240.576 128.906 240.375C129.114 240.17 129.275 239.917 129.388 239.614L130.684 239.977C130.548 240.417 130.318 240.803 129.996 241.136C129.674 241.466 129.277 241.723 128.803 241.909C128.33 242.091 127.798 242.182 127.207 242.182ZM133.458 245.273C133.231 245.273 133.028 245.254 132.85 245.216C132.672 245.182 132.549 245.148 132.481 245.114L132.822 243.932C133.147 244.015 133.435 244.045 133.685 244.023C133.935 244 134.157 243.888 134.35 243.688C134.547 243.491 134.727 243.17 134.89 242.727L135.14 242.045L131.913 233.273H133.367L135.776 240.227H135.867L138.276 233.273H139.731L136.026 243.273C135.86 243.723 135.653 244.097 135.407 244.392C135.161 244.691 134.875 244.913 134.549 245.057C134.227 245.201 133.863 245.273 133.458 245.273ZM143.478 242L140.819 233.273H142.228L144.114 239.955H144.205L146.069 233.273H147.501L149.342 239.932H149.433L151.319 233.273H152.728L150.069 242H148.751L146.842 235.295H146.705L144.796 242H143.478ZM157.749 242.182C156.961 242.182 156.27 241.994 155.675 241.619C155.085 241.244 154.622 240.72 154.289 240.045C153.96 239.371 153.795 238.583 153.795 237.682C153.795 236.773 153.96 235.979 154.289 235.301C154.622 234.623 155.085 234.097 155.675 233.722C156.27 233.347 156.961 233.159 157.749 233.159C158.537 233.159 159.227 233.347 159.817 233.722C160.412 234.097 160.874 234.623 161.204 235.301C161.537 235.979 161.704 236.773 161.704 237.682C161.704 238.583 161.537 239.371 161.204 240.045C160.874 240.72 160.412 241.244 159.817 241.619C159.227 241.994 158.537 242.182 157.749 242.182ZM157.749 240.977C158.348 240.977 158.84 240.824 159.227 240.517C159.613 240.21 159.899 239.807 160.085 239.307C160.27 238.807 160.363 238.265 160.363 237.682C160.363 237.098 160.27 236.555 160.085 236.051C159.899 235.547 159.613 235.14 159.227 234.83C158.84 234.519 158.348 234.364 157.749 234.364C157.151 234.364 156.658 234.519 156.272 234.83C155.886 235.14 155.6 235.547 155.414 236.051C155.228 236.555 155.136 237.098 155.136 237.682C155.136 238.265 155.228 238.807 155.414 239.307C155.6 239.807 155.886 240.21 156.272 240.517C156.658 240.824 157.151 240.977 157.749 240.977ZM163.751 242V233.273H165.046V234.591H165.137C165.296 234.159 165.584 233.809 166.001 233.54C166.417 233.271 166.887 233.136 167.41 233.136C167.508 233.136 167.631 233.138 167.779 233.142C167.927 233.146 168.039 233.152 168.114 233.159V234.523C168.069 234.511 167.965 234.494 167.802 234.472C167.643 234.445 167.474 234.432 167.296 234.432C166.872 234.432 166.493 234.521 166.16 234.699C165.83 234.873 165.569 235.116 165.376 235.426C165.186 235.733 165.092 236.083 165.092 236.477V242H163.751ZM172.734 242.182C172.006 242.182 171.364 241.998 170.808 241.631C170.251 241.259 169.815 240.737 169.501 240.062C169.186 239.384 169.029 238.583 169.029 237.659C169.029 236.742 169.186 235.947 169.501 235.273C169.815 234.598 170.253 234.078 170.813 233.71C171.374 233.343 172.022 233.159 172.756 233.159C173.325 233.159 173.773 233.254 174.103 233.443C174.436 233.629 174.69 233.841 174.864 234.08C175.042 234.314 175.181 234.508 175.279 234.659H175.393V230.364H176.734V242H175.438V240.659H175.279C175.181 240.818 175.04 241.019 174.859 241.261C174.677 241.5 174.417 241.714 174.08 241.903C173.743 242.089 173.294 242.182 172.734 242.182ZM172.915 240.977C173.453 240.977 173.908 240.837 174.279 240.557C174.65 240.273 174.933 239.881 175.126 239.381C175.319 238.877 175.415 238.295 175.415 237.636C175.415 236.985 175.321 236.415 175.131 235.926C174.942 235.434 174.662 235.051 174.29 234.778C173.919 234.502 173.461 234.364 172.915 234.364C172.347 234.364 171.874 234.509 171.495 234.801C171.12 235.089 170.838 235.481 170.648 235.977C170.463 236.47 170.37 237.023 170.37 237.636C170.37 238.258 170.465 238.822 170.654 239.33C170.847 239.833 171.131 240.235 171.506 240.534C171.885 240.83 172.355 240.977 172.915 240.977Z" fill="#7F7F7F"/>
</svg>
