<svg width="49" height="32" viewBox="0 0 49 32" fill="none" xmlns="http://www.w3.org/2000/svg">
<path fill-rule="evenodd" clip-rule="evenodd" d="M44.9101 0.702576H44.1716V0.577988C44.1716 0.509914 44.1857 0.457253 44.2153 0.420005C44.2397 0.389179 44.2975 0.373766 44.381 0.373766H44.7509V0H44.372C44.1665 0 44.0059 0.0539455 43.898 0.160552C43.7888 0.267159 43.7336 0.44184 43.7336 0.676888V1.11487H44.9114V0.701292L44.9101 0.702576ZM29.5729 0.579274H29.0347V1.11616H29.5729V0.579274ZM40.7589 7.25439H40.2207V7.79128H40.7589V7.25439ZM47.0795 6.40667C46.9986 6.52613 46.892 6.61603 46.7597 6.67897V6.68026C46.6274 6.74319 46.4656 6.77402 46.2729 6.77402C46.1303 6.77402 45.9839 6.75475 45.8362 6.71365L45.9775 6.19731C46.0404 6.2153 46.0892 6.22686 46.1252 6.23071C46.1599 6.23456 46.2035 6.23713 46.2524 6.23713C46.3551 6.23713 46.4386 6.223 46.5041 6.19346C46.5683 6.16392 46.6197 6.1164 46.6582 6.05218C46.6968 5.98667 46.7237 5.9019 46.7392 5.79658C46.7546 5.69125 46.7623 5.56281 46.7623 5.41125V1.65304H47.3004V5.41125C47.3004 5.62061 47.2837 5.80942 47.2504 5.97768C47.217 6.14465 47.1604 6.28851 47.0795 6.40667ZM39.1457 7.25439H39.6838V7.79128H39.1457V7.25439ZM30.6493 0.579274H30.1111V1.11616H30.6493V0.579274ZM43.1954 5.1929C42.927 5.12354 42.6907 5.01565 42.4864 4.87051L42.4877 4.8718C42.2835 4.72666 42.1217 4.54042 42.0035 4.31436C41.8841 4.0883 41.825 3.816 41.825 3.49875C41.825 3.23545 41.8789 2.99012 41.9868 2.76407C42.0934 2.53801 42.245 2.34278 42.4402 2.17966C42.6354 2.01654 42.8692 1.88809 43.1428 1.79433C43.4164 1.70057 43.7195 1.65304 44.0509 1.65304H44.9114V5.39584C44.9114 5.81584 44.7933 6.14979 44.5556 6.39897C44.318 6.64686 43.9366 6.77145 43.4125 6.77145C43.252 6.77145 43.0914 6.75347 42.9321 6.71494C42.7729 6.67769 42.5892 6.61989 42.3837 6.54411L42.5519 6.02777C42.7215 6.10355 42.8731 6.1575 43.0053 6.18832C43.1376 6.22043 43.2866 6.23585 43.4523 6.23585C43.7439 6.23585 43.9699 6.17548 44.1318 6.05474C44.2923 5.93401 44.3733 5.73236 44.3733 5.45107V4.91804L44.1922 5.29694H44.0496C43.749 5.29694 43.4639 5.26226 43.1954 5.1929ZM42.8153 2.55599C42.6791 2.6703 42.5686 2.80774 42.4864 2.96829H42.4877C42.4042 3.13013 42.3631 3.2971 42.3631 3.49875C42.3631 3.70041 42.4017 3.87894 42.4775 4.03564C42.5532 4.19234 42.6586 4.32335 42.7934 4.43124C42.9283 4.53913 43.0837 4.62133 43.2609 4.67656C43.4382 4.73308 43.627 4.76134 43.8287 4.76134H44.3733V2.35048L44.6802 2.19892H43.8107C43.6283 2.20021 43.4523 2.23103 43.2828 2.2914C43.1081 2.35434 42.9514 2.44168 42.8153 2.55599ZM29.1824 6.69824H30.2999V6.29622C30.3102 6.31548 30.3217 6.33475 30.3333 6.35145C30.4142 6.46961 30.5208 6.5608 30.6531 6.62374C30.7854 6.68668 30.9472 6.7175 31.1399 6.7175H40.9464V1.65304H40.4082V6.1819H31.1592C31.0564 6.1819 30.9716 6.16777 30.9074 6.13823C30.8432 6.10869 30.7905 6.06245 30.7533 5.99695C30.716 5.93144 30.6891 5.84667 30.6724 5.74135C30.657 5.63602 30.6492 5.50758 30.6492 5.35602V1.65304H29.1953C27.7079 1.65304 26.6958 2.83086 26.6958 4.17564V4.18977C26.6958 5.53455 27.6938 6.69824 29.1812 6.69824H29.1824ZM27.2699 4.16151C27.2699 3.05306 28.0663 2.16167 29.1824 2.16167H30.4412L30.1111 2.32608V5.35602C30.1111 5.56667 30.1278 5.75548 30.1612 5.92245C30.1804 6.02007 30.2087 6.10869 30.2447 6.18961H29.1953C28.0778 6.18961 27.2687 5.28281 27.2687 4.17564V4.16151H27.2699ZM24.24 5.9841L24.0062 5.36501V1.6479H24.5611V6.68796H24.1064L20.5293 2.15396L20.8453 2.88865V6.68796H20.2904V1.6479H20.8247L24.24 5.9841ZM34.7671 11.7871L31.6677 14.7415C33.3306 15.0217 34.9598 15.8952 34.9598 18.1681V18.2028C34.9598 20.5109 33.2785 22.2076 30.5452 22.2076C28.3373 22.2076 26.8127 21.3342 25.762 20.0921L27.6193 18.3261C28.4606 19.2714 29.3366 19.7954 30.5799 19.7954C31.5959 19.7954 32.3139 19.2187 32.3139 18.3094V18.2747C32.3139 17.278 31.4199 16.718 29.9133 16.718H28.792L28.3707 15.0046L32.3049 11.055L30.7289 12.0671H26.48V9.759H34.7671V11.7871ZM14.2061 4.16794C14.2061 2.77691 15.2529 1.56057 16.7891 1.56057V1.56186C18.3265 1.56186 19.3579 2.76407 19.3579 4.15381V4.16794C19.3579 5.55768 18.3124 6.77402 16.775 6.77402C15.2375 6.77402 14.2061 5.57181 14.2061 4.18207V4.16794ZM16.7891 6.24869C17.9438 6.24869 18.7658 5.32648 18.7658 4.18207V4.16794C18.7658 3.02352 17.9284 2.08718 16.775 2.08718C15.6216 2.08718 14.7982 3.00939 14.7982 4.15381V4.16794C14.7982 5.31235 15.6344 6.24869 16.7891 6.24869ZM42.1897 9.54836C38.4058 9.54836 35.6546 12.3985 35.6546 15.878V15.9126C35.6546 19.3921 38.3699 22.2076 42.1538 22.2076C45.9377 22.2076 48.6889 19.3575 48.6889 15.878V15.8433C48.6889 12.3638 45.9736 9.54836 42.1897 9.54836ZM45.8696 15.9126C45.8696 18.0114 44.363 19.7248 42.1897 19.7248C40.0165 19.7248 38.4752 17.9767 38.4752 15.878V15.8433C38.4752 13.7445 39.9818 12.0311 42.1538 12.0311C44.3257 12.0311 45.8683 13.7792 45.8683 15.878V15.9126H45.8696ZM12.6533 1.6479H13.2236V6.68796H12.6533V1.6479ZM3.49666 20.6008L4.01684 20.2L6.69742 18.1347C8.86937 16.456 9.92131 15.4426 9.92131 13.3965V13.3618C9.92131 11.0704 8.24001 9.58432 5.69943 9.58432C3.5095 9.58432 2.33554 10.4757 1.1269 12.1198L3.01885 13.6405C3.9295 12.5218 4.57814 11.9977 5.52475 11.9977C6.47137 11.9977 7.17137 12.5578 7.17137 13.5891C7.17137 14.6205 6.5754 15.2679 5.05208 16.5266L0.968921 19.8661V21.9995H10.0433V19.6734H5.36805L3.49666 20.6008ZM5.70585 1.6479L3.5339 6.72392H3.02913L0.857178 1.6479H1.49168L1.80251 2.398L3.28858 5.98923L3.43115 6.33346L3.37592 5.77987L5.0919 1.6479H5.70585ZM7.05064 1.6479H6.48036V6.68796H7.05064V1.6479ZM8.69727 2.91563C8.69727 3.39087 8.95672 3.65674 10.0677 3.89436L10.0665 3.89693C11.1929 4.14225 11.7118 4.55198 11.7118 5.32263V5.33676C11.7118 6.20117 10.9912 6.76246 9.98811 6.76246C9.18791 6.76246 8.53158 6.49659 7.92533 5.95585L8.27855 5.53841C8.80516 6.01365 9.33177 6.25127 10.0099 6.25127C10.6881 6.25127 11.1351 5.89163 11.1351 5.39456V5.38043C11.1351 4.91162 10.8833 4.64574 9.82242 4.42225C8.6613 4.16922 8.12699 3.79546 8.12699 2.96701V2.95288C8.12699 2.16039 8.82699 1.57727 9.78645 1.57727C10.5224 1.57727 11.049 1.78534 11.5615 2.19636L11.2301 2.63563C10.7613 2.25416 10.2912 2.08847 9.77233 2.08847C9.11599 2.08847 8.69727 2.4481 8.69727 2.9015V2.91563Z" fill="white"/>
<path d="M17.3748 8.74432L17.9952 9.33901L17.3992 9.9581L16.7788 9.36341L17.3748 8.74432Z" fill="white"/>
<path d="M18.7952 9.36341L19.4168 9.9581L20.0128 9.33901L19.3911 8.74432L18.7952 9.36341Z" fill="white"/>
<path d="M17.9207 10.1444L18.4049 10.6081L18.8686 10.1251L18.3856 9.66272L17.9207 10.1444Z" fill="white"/>
<path d="M19.6943 10.4102L20.1773 10.8726L20.6422 10.391L20.158 9.92731L19.6943 10.4102Z" fill="white"/>
<path d="M17.1306 10.8829L17.6136 11.3466L18.0772 10.8636L17.5943 10.4L17.1306 10.8829Z" fill="white"/>
<path d="M18.7529 10.9394L19.2359 11.4018L19.7008 10.9202L19.2166 10.4565L18.7529 10.9394Z" fill="white"/>
<path d="M18.1184 11.4943L18.4588 11.8205L18.785 11.4802L18.4447 11.1539L18.1184 11.4943Z" fill="white"/>
<path d="M19.4016 11.7499L19.742 12.0762L20.0682 11.7358L19.7279 11.4108L19.4016 11.7499Z" fill="white"/>
<path d="M23.259 8.97308L22.2041 9.1665L22.3973 10.2201L23.4522 10.0267L23.259 8.97308Z" fill="white"/>
<path d="M21.6746 9.45164L20.8281 9.60669L20.9829 10.4519L21.8294 10.2968L21.6746 9.45164Z" fill="white"/>
<path d="M23.3098 10.6322L22.4634 10.7874L22.6183 11.6326L23.4648 11.4774L23.3098 10.6322Z" fill="white"/>
<path d="M21.9556 10.7903L21.2961 10.9111L21.4167 11.5693L22.0762 11.4485L21.9556 10.7903Z" fill="white"/>
<path d="M23.2374 12.0403L22.5779 12.1611L22.6985 12.8194L23.3579 12.6986L23.2374 12.0403Z" fill="white"/>
<path d="M20.9681 11.0576L20.3086 11.1784L20.4292 11.8366L21.0887 11.7158L20.9681 11.0576Z" fill="white"/>
<path d="M22.1634 11.9198L21.5039 12.0406L21.6245 12.6989L22.284 12.5781L22.1634 11.9198Z" fill="white"/>
<path d="M21.1287 12.0324L20.665 12.1174L20.7498 12.5798L21.2135 12.4948L21.1287 12.0324Z" fill="white"/>
<path d="M22.0191 12.9909L21.5554 13.0757L21.64 13.5381L22.1037 13.4533L22.0191 12.9909Z" fill="white"/>
<path d="M25.342 12.6182L24.8809 13.5853L25.8506 14.0452L26.3104 13.078L25.342 12.6182Z" fill="white"/>
<path d="M23.9663 12.1712L23.5977 12.947L24.3747 13.3156L24.7446 12.5398L23.9663 12.1712Z" fill="white"/>
<path d="M24.6033 14.0824L24.2334 14.8582L25.0105 15.2268L25.3804 14.451L24.6033 14.0824Z" fill="white"/>
<path d="M23.5848 13.5005L23.2971 14.1042L23.9021 14.3919L24.1898 13.787L23.5848 13.5005Z" fill="white"/>
<path d="M23.892 15.2628L23.6042 15.8664L24.2092 16.1541L24.4969 15.5505L23.892 15.2628Z" fill="white"/>
<path d="M22.6268 13.1409L22.3391 13.7446L22.9441 14.0323L23.2318 13.4274L22.6268 13.1409Z" fill="white"/>
<path d="M23.0917 14.5383L22.804 15.142L23.4089 15.4297L23.6966 14.8248L23.0917 14.5383Z" fill="white"/>
<path d="M22.3633 14.1119L22.1616 14.5371L22.5868 14.7387L22.7897 14.3149L22.3633 14.1119Z" fill="white"/>
<path d="M22.5257 15.4085L22.3237 15.8329L22.7494 16.0355L22.9514 15.611L22.5257 15.4085Z" fill="white"/>
<path d="M25.8648 17.2485L24.9233 17.7635L25.4397 18.7024L26.3799 18.1874L25.8648 17.2485Z" fill="white"/>
<path d="M25.0105 16.0835L24.2566 16.4958L24.6702 17.2497L25.4254 16.8362L25.0105 16.0835Z" fill="white"/>
<path d="M24.4068 18.0037L23.6516 18.4173L24.0665 19.17L24.8204 18.7577L24.4068 18.0037Z" fill="white"/>
<path d="M23.9215 16.9376L23.3345 17.2587L23.6569 17.8457L24.2438 17.5233L23.9215 16.9376Z" fill="white"/>
<path d="M23.1378 18.5457L22.5496 18.8681L22.8719 19.4538L23.4602 19.1327L23.1378 18.5457Z" fill="white"/>
<path d="M23.3563 16.0861L22.7681 16.4084L23.0905 16.9941L23.6787 16.673L23.3563 16.0861Z" fill="white"/>
<path d="M22.9132 17.4912L22.3262 17.8136L22.6486 18.3993L23.2355 18.0782L22.9132 17.4912Z" fill="white"/>
<path d="M22.5728 16.7206L22.1592 16.9479L22.3865 17.3602L22.8001 17.1342L22.5728 16.7206Z" fill="white"/>
<path d="M21.9446 17.8663L21.531 18.0923L21.7571 18.5046L22.1706 18.2786L21.9446 17.8663Z" fill="white"/>
<path d="M22.5106 21.1785L22.3792 22.2416L23.4435 22.3733L23.575 21.3102L22.5106 21.1785Z" fill="white"/>
<path d="M22.7091 19.7572L22.6035 20.61L23.4575 20.7158L23.5632 19.863L22.7091 19.7572Z" fill="white"/>
<path d="M21.0922 20.963L20.9866 21.8157L21.8406 21.9215L21.9462 21.0687L21.0922 20.963Z" fill="white"/>
<path d="M21.5167 19.8414L21.4346 20.5055L22.1 20.5878L22.1821 19.9237L21.5167 19.8414Z" fill="white"/>
<path d="M19.9371 20.6886L19.855 21.3527L20.5204 21.435L20.6025 20.7709L19.9371 20.6886Z" fill="white"/>
<path d="M21.5532 18.8172L21.4709 19.4813L22.1363 19.5637L22.2186 18.8996L21.5532 18.8172Z" fill="white"/>
<path d="M20.3711 19.6987L20.2888 20.3628L20.9542 20.4452L21.0364 19.7811L20.3711 19.6987Z" fill="white"/>
<path d="M20.744 18.9006L20.6863 19.3672L21.1541 19.425L21.2118 18.9585L20.744 18.9006Z" fill="white"/>
<path d="M19.5633 19.4628L19.5056 19.9293L19.9734 19.9872L20.0311 19.5206L19.5633 19.4628Z" fill="white"/>
<path d="M19.3347 23.2634L18.5486 22.5339L17.8191 23.3199L18.6052 24.0482L19.3347 23.2634Z" fill="white"/>
<path d="M19.1897 8.26397L18.4036 7.53442L17.6741 8.3192L18.4601 9.04875L19.1897 8.26397Z" fill="white"/>
<path d="M20.1734 22.0869L19.5427 21.5025L18.957 22.1332L19.589 22.7163L20.1734 22.0869Z" fill="white"/>
<path d="M18.157 22.1203L17.5264 21.5359L16.9407 22.1665L17.5713 22.7497L18.157 22.1203Z" fill="white"/>
<path d="M19.0174 21.3252L18.5268 20.8705L18.0708 21.3599L18.5614 21.8146L19.0174 21.3252Z" fill="white"/>
<path d="M17.241 21.0889L16.7504 20.6342L16.2944 21.1249L16.7851 21.5795L17.241 21.0889Z" fill="white"/>
<path d="M19.648 20.5212L19.1574 20.0652L18.7014 20.5558L19.1921 21.0105L19.648 20.5212Z" fill="white"/>
<path d="M18.1737 20.5456L17.6818 20.0896L17.2258 20.5802L17.7178 21.0349L18.1737 20.5456Z" fill="white"/>
<path d="M18.7979 19.9792L18.4524 19.6594L18.1326 20.0036L18.4781 20.3247L18.7979 19.9792Z" fill="white"/>
<path d="M17.5108 19.7441L17.1653 19.4243L16.8455 19.7698L17.191 20.0896L17.5108 19.7441Z" fill="white"/>
<path d="M14.5408 21.323L13.4893 21.5337L13.6997 22.584L14.7513 22.3733L14.5408 21.323Z" fill="white"/>
<path d="M15.9534 21.0659L15.1096 21.2349L15.2784 22.0775L16.1222 21.9084L15.9534 21.0659Z" fill="white"/>
<path d="M14.2959 19.9168L13.4521 20.086L13.6211 20.9285L14.4649 20.7593L14.2959 19.9168Z" fill="white"/>
<path d="M15.5019 19.9591L14.8445 20.0908L14.9759 20.747L15.6334 20.6152L15.5019 19.9591Z" fill="white"/>
<path d="M16.4838 19.674L15.8264 19.8057L15.9579 20.4619L16.6153 20.3301L16.4838 19.674Z" fill="white"/>
<path d="M15.2724 18.834L14.615 18.9658L14.7465 19.6219L15.4039 19.4902L15.2724 18.834Z" fill="white"/>
<path d="M16.1504 18.9346L15.6882 19.0271L15.7805 19.4881L16.2427 19.3955L16.1504 18.9346Z" fill="white"/>
<path d="M15.2422 17.9957L14.78 18.0884L14.8725 18.5493L15.3346 18.4566L15.2422 17.9957Z" fill="white"/>
<path d="M11.5575 18.9748L12.0019 18.0012L11.0258 17.5568L10.5801 18.5316L11.5575 18.9748Z" fill="white"/>
<path d="M12.9397 19.3999L13.2968 18.6177L12.5133 18.2619L12.1562 19.0428L12.9397 19.3999Z" fill="white"/>
<path d="M12.2718 17.499L12.6288 16.718L11.8454 16.361L11.4883 17.1432L12.2718 17.499Z" fill="white"/>
<path d="M12.9681 17.1788L12.6904 17.7876L13.3004 18.0658L13.5781 17.457L12.9681 17.1788Z" fill="white"/>
<path d="M14.1162 19.5861L14.3936 18.9773L13.7835 18.6999L13.5061 19.3087L14.1162 19.5861Z" fill="white"/>
<path d="M12.6312 15.4186L12.3535 16.0275L12.9635 16.3057L13.2412 15.6969L12.6312 15.4186Z" fill="white"/>
<path d="M13.9318 17.5203L13.6541 18.1291L14.2641 18.4073L14.5418 17.7985L13.9318 17.5203Z" fill="white"/>
<path d="M13.4439 16.1308L13.166 16.7395L13.7759 17.018L14.0539 16.4092L13.4439 16.1308Z" fill="white"/>
<path d="M14.5105 17.4321L14.7058 17.0032L14.2768 16.8079L14.0815 17.2369L14.5105 17.4321Z" fill="white"/>
<path d="M14.328 16.1388L14.5232 15.7098L14.0942 15.5158L13.8977 15.9435L14.328 16.1388Z" fill="white"/>
<path d="M10.9578 14.3534L11.8903 13.8242L11.3585 12.893L10.426 13.4235L10.9578 14.3534Z" fill="white"/>
<path d="M11.8312 15.5055L12.5787 15.0791L12.1523 14.3328L11.4048 14.7593L11.8312 15.5055Z" fill="white"/>
<path d="M12.4027 13.5738L13.1516 13.1487L12.7238 12.4024L11.9763 12.8275L12.4027 13.5738Z" fill="white"/>
<path d="M12.9062 14.6334L13.488 14.3007L13.1553 13.7202L12.5735 14.0515L12.9062 14.6334Z" fill="white"/>
<path d="M13.664 13.0112L14.2458 12.6798L13.9131 12.0992L13.3313 12.4306L13.664 13.0112Z" fill="white"/>
<path d="M13.4854 15.4747L14.0686 15.1433L13.7359 14.5615L13.1541 14.8928L13.4854 15.4747Z" fill="white"/>
<path d="M13.9041 14.0618L14.486 13.7305L14.1546 13.1499L13.5728 13.4813L13.9041 14.0618Z" fill="white"/>
<path d="M14.2574 14.8273L14.6672 14.5936L14.4334 14.1851L14.0237 14.4176L14.2574 14.8273Z" fill="white"/>
<path d="M14.8676 13.6714L15.2773 13.4389L15.0435 13.0292L14.6338 13.2629L14.8676 13.6714Z" fill="white"/>
<path d="M13.2955 9.19157L13.1816 10.2567L14.2481 10.3707L14.3619 9.30554L13.2955 9.19157Z" fill="white"/>
<path d="M13.3065 10.8456L13.2151 11.7L14.0708 11.7915L14.1622 10.9372L13.3065 10.8456Z" fill="white"/>
<path d="M14.9027 9.61381L14.8113 10.4682L15.667 10.5598L15.7584 9.7054L14.9027 9.61381Z" fill="white"/>
<path d="M14.6689 10.9541L14.5977 11.6195L15.2643 11.6909L15.3355 11.0255L14.6689 10.9541Z" fill="white"/>
<path d="M16.2326 10.0812L16.1616 10.7466L16.8283 10.8177L16.8993 10.1523L16.2326 10.0812Z" fill="white"/>
<path d="M14.6452 11.9746L14.574 12.64L15.2406 12.7114L15.3119 12.046L14.6452 11.9746Z" fill="white"/>
<path d="M15.8137 11.0737L15.7424 11.7391L16.4091 11.8104L16.4803 11.1451L15.8137 11.0737Z" fill="white"/>
<path d="M15.6311 12.1003L15.5811 12.5677L16.0498 12.6179L16.0998 12.1505L15.6311 12.1003Z" fill="white"/>
<path d="M16.8017 11.5184L16.752 11.9858L17.2207 12.0357L17.2704 11.5682L16.8017 11.5184Z" fill="white"/>
<path d="M21.815 16.4496C21.7354 16.4046 21.5903 16.3289 21.3899 16.2659C21.1009 16.1734 20.6976 16.1041 20.2198 16.1799C20.0592 16.2055 19.8897 16.2479 19.7137 16.3109C19.697 16.3173 19.6803 16.3224 19.6636 16.3289C19.5737 16.3622 19.4851 16.4033 19.3952 16.4483C19.3194 16.4868 19.2424 16.5292 19.1666 16.5755C18.9932 16.6795 18.8224 16.7977 18.6567 16.9261C18.4679 15.7843 18.5603 14.7246 18.604 14.2044C18.604 14.2019 18.6079 14.2006 18.6104 14.2019C19.015 14.4562 18.902 15.1665 18.8159 15.3707C18.8146 15.3745 18.8198 15.3771 18.8236 15.3745C19.3271 14.7798 19.0818 14.1222 18.9778 13.9565C18.9752 13.9527 18.9803 13.9488 18.9842 13.9514C19.0574 14.0105 19.1165 14.0734 19.1666 14.1376C19.322 14.3367 19.3798 14.5512 19.3952 14.7413C19.4029 14.8415 19.4003 14.934 19.3952 15.0136C19.3939 15.0354 19.3926 15.0547 19.3901 15.074C19.3901 15.0765 19.3926 15.0778 19.3952 15.0765H19.3978C19.5339 14.8094 19.5994 14.4061 19.3952 14.0143C19.34 13.9077 19.2655 13.8024 19.1666 13.7009C19.1383 13.6714 19.1075 13.6431 19.0754 13.6136C19.0728 13.611 19.0754 13.6059 19.0792 13.6072C19.1101 13.6149 19.1383 13.6239 19.1666 13.6329C19.2526 13.6624 19.3284 13.7035 19.3952 13.7536C19.548 13.8666 19.6521 14.0208 19.7137 14.1826C19.7651 14.3162 19.7882 14.4536 19.7882 14.5756C19.7882 14.5808 19.7947 14.5808 19.7959 14.5756C19.891 14.2275 19.8332 13.9642 19.7137 13.7729C19.629 13.6354 19.5121 13.5352 19.3952 13.4646C19.3156 13.4171 19.2359 13.3837 19.1666 13.3631C19.1255 13.3503 19.0895 13.3426 19.0574 13.3387C19.0523 13.3387 19.0535 13.331 19.0574 13.331C19.0947 13.3272 19.1306 13.3259 19.1653 13.3246C19.2501 13.3233 19.3258 13.331 19.3939 13.3426C19.5288 13.3683 19.6341 13.4145 19.7125 13.4685C19.8409 13.5545 19.9051 13.656 19.927 13.6971C19.9295 13.7009 19.9347 13.6984 19.9347 13.6945C19.9167 13.5108 19.8319 13.367 19.7137 13.2642C19.6225 13.1846 19.5108 13.1294 19.3952 13.096C19.3194 13.0754 19.2424 13.0639 19.1666 13.0626C19.0638 13.0626 18.9649 13.078 18.8814 13.114C18.8776 13.1152 18.875 13.1114 18.8763 13.1075C18.9508 13.0009 19.0561 12.9367 19.1666 12.902C19.2436 12.8789 19.322 12.8699 19.3952 12.8751C19.4658 12.8789 19.5301 12.8943 19.5827 12.9187C19.5866 12.92 19.5892 12.9162 19.5866 12.9123C19.5288 12.8468 19.4633 12.7954 19.3952 12.7569C19.322 12.7158 19.2449 12.6914 19.1666 12.6824C18.9624 12.6593 18.7543 12.7466 18.6156 12.956C18.6143 12.9585 18.6104 12.9585 18.6091 12.956C18.5822 12.9085 18.5565 12.8558 18.5334 12.8006C18.4781 12.6721 18.4332 12.5283 18.4088 12.3844C18.4088 12.3793 18.4024 12.3793 18.4024 12.3844C18.3779 12.5283 18.3317 12.6734 18.2765 12.8018C18.2521 12.8571 18.2277 12.9085 18.2007 12.9547C18.1994 12.9573 18.1956 12.9573 18.1943 12.9547C17.9528 12.5886 17.4994 12.5963 17.2233 12.9123C17.2207 12.9149 17.2233 12.92 17.2271 12.9187C17.4108 12.8314 17.7589 12.8571 17.9335 13.1075C17.9361 13.1114 17.9335 13.1152 17.9284 13.114C17.66 13.0009 17.2438 13.0741 17.0216 13.3387C16.942 13.4325 16.888 13.5519 16.8739 13.6945C16.8739 13.6984 16.879 13.7009 16.8816 13.6971C16.8983 13.665 16.942 13.5956 17.0216 13.525C17.1513 13.4107 17.3774 13.2951 17.7511 13.3297C17.7563 13.3297 17.7563 13.3374 17.7511 13.3374C17.5598 13.3606 17.1655 13.5314 17.0203 13.9219C16.9561 14.094 16.9394 14.3097 17.0113 14.5743C17.0113 14.5782 17.019 14.5782 17.019 14.5743C17.019 14.5679 17.019 14.5628 17.019 14.5564C17.0229 14.2019 17.2258 13.7266 17.728 13.6059C17.7319 13.6059 17.7345 13.6097 17.7319 13.6123C17.1706 14.1055 17.2258 14.7143 17.4095 15.074C17.4121 15.0778 17.4172 15.0765 17.4172 15.0714C17.3928 14.7991 17.3735 14.3149 17.8231 13.9488C17.8269 13.9463 17.8321 13.9488 17.8295 13.954C17.7255 14.1209 17.4801 14.7773 17.9836 15.372C17.9862 15.3758 17.9926 15.372 17.9913 15.3681C17.9066 15.1652 17.7935 14.4536 18.1968 14.1993C18.1994 14.198 18.2033 14.1993 18.2033 14.2019C18.2469 14.722 18.3394 15.7817 18.1506 16.9235C17.8256 16.6744 17.4827 16.456 17.1436 16.3276C17.1012 16.3122 17.0601 16.298 17.0203 16.2839C16.6697 16.1683 16.3486 16.1362 16.0686 16.149C15.619 16.1683 15.2748 16.3032 15.086 16.3969C15.0475 16.4162 15.0153 16.4342 14.9909 16.4483C14.9807 16.4547 14.9884 16.4689 14.9986 16.465C15.0282 16.456 15.0564 16.447 15.086 16.4393C15.4315 16.3417 15.759 16.316 16.0686 16.343C16.4064 16.3725 16.7236 16.465 17.0203 16.5986C17.4365 16.7861 17.8128 17.0533 18.1532 17.3358C17.6728 17.7546 17.2669 18.1617 17.0203 18.3043C17.0075 18.3107 16.9959 18.3184 16.9844 18.3248C16.9253 18.2439 16.8225 18.1977 16.7108 18.2221C16.6132 18.2439 16.5335 18.3223 16.5117 18.4186C16.4924 18.5047 16.5143 18.5984 16.5631 18.6472C16.6941 18.7782 16.8456 18.7872 17.0203 18.714C17.353 18.574 17.7666 18.1347 18.2739 17.6698C18.3163 17.6313 18.3587 17.5914 18.4024 17.5529C18.446 17.5914 18.4884 17.63 18.5308 17.6685C18.7607 17.8791 18.9713 18.0847 19.164 18.2593C19.2436 18.3313 19.3194 18.398 19.3926 18.4571C19.5057 18.5496 19.6123 18.6254 19.7112 18.6781C19.9051 18.7808 20.0734 18.7937 20.2172 18.6665C20.2249 18.6601 20.2326 18.6536 20.2404 18.6459C20.2737 18.6125 20.3123 18.5034 20.2917 18.4173C20.2802 18.3672 20.2532 18.3223 20.2159 18.2876C20.1826 18.2555 20.1389 18.2311 20.0926 18.2208C19.9809 18.1964 19.8781 18.2426 19.8191 18.3236C19.7857 18.3069 19.7497 18.2837 19.7099 18.2568C19.6187 18.1938 19.5121 18.1052 19.3914 17.9999C19.3194 17.9369 19.2436 17.8676 19.1627 17.7944C19.006 17.6518 18.8339 17.4951 18.6515 17.3346C18.8134 17.1997 18.9842 17.0687 19.1627 16.9479C19.2372 16.8979 19.313 16.849 19.3914 16.8028C19.4954 16.7412 19.6007 16.6846 19.7099 16.632C19.873 16.5536 20.0413 16.4881 20.2159 16.438C20.5782 16.334 20.9673 16.2993 21.3861 16.3661C21.5222 16.3879 21.6609 16.42 21.8035 16.4637C21.815 16.4676 21.8215 16.4522 21.8125 16.447" fill="white"/>
<path fill-rule="evenodd" clip-rule="evenodd" d="M16.8315 27.4403H16.328C16.1482 27.4403 16.0069 27.4146 15.9041 27.3632C15.8014 27.3119 15.7205 27.2348 15.6614 27.1333C15.6794 27.0537 15.6884 26.9574 15.6884 26.8456V25.854H15.3801V26.8944C15.3801 27.0717 15.3326 27.213 15.2375 27.3196C15.1425 27.4262 14.9986 27.4788 14.806 27.4788C14.716 27.4788 14.6338 27.4647 14.5593 27.4364C14.4849 27.4082 14.4206 27.3697 14.3667 27.3208C14.3127 27.272 14.2704 27.2155 14.2395 27.15C14.2087 27.0845 14.192 27.0152 14.1894 26.9407V25.854H13.8812V26.9175C13.8812 27.0126 13.867 27.0922 13.8388 27.1577C13.8105 27.2232 13.772 27.2772 13.7232 27.3196C13.6744 27.3619 13.6192 27.3928 13.5575 27.412C13.4959 27.4313 13.4303 27.4403 13.361 27.4403H12.765V25.854H12.4568V27.4403H10.841L11.3791 26.1533C11.2969 26.0814 11.2096 26.0146 11.1171 25.9517C11.0246 25.8887 10.9296 25.8335 10.832 25.786C10.7344 25.7384 10.6355 25.7012 10.5353 25.6742C10.4351 25.6472 10.3362 25.6344 10.2386 25.6344C10.141 25.6344 10.0382 25.6485 9.93801 25.6742C9.83783 25.7012 9.73893 25.7372 9.64003 25.7834C9.54113 25.8296 9.44608 25.8849 9.35489 25.9491C9.2637 26.0133 9.17892 26.0801 9.09929 26.152L9.64131 27.439H8.57525V25.6614H8.08332C7.89322 25.6614 7.71983 25.6883 7.56313 25.7423C7.40643 25.7962 7.27285 25.8695 7.1611 25.9632C7.04936 26.057 6.9633 26.1687 6.90165 26.2972C6.84 26.4269 6.80917 26.5669 6.80917 26.7185C6.80917 26.9008 6.84257 27.0563 6.91064 27.1847C6.97872 27.3144 7.07119 27.421 7.18808 27.5032C7.30496 27.5867 7.43982 27.6484 7.59395 27.6869C7.74808 27.7267 7.9112 27.746 8.08332 27.746H8.26827V27.8346C8.26827 27.9964 8.22203 28.1108 8.12955 28.1801C8.03708 28.2495 7.90735 28.2842 7.74038 28.2842C7.64533 28.2842 7.56056 28.2752 7.48478 28.2572C7.409 28.2392 7.32294 28.2084 7.22532 28.1647L7.12899 28.4601C7.24716 28.5038 7.3512 28.5359 7.44239 28.5577C7.53358 28.5796 7.62478 28.5911 7.71726 28.5911C8.01781 28.5911 8.23488 28.5205 8.37103 28.3779C8.50717 28.2353 8.57525 28.044 8.57525 27.8038V27.746H13.3584C13.5074 27.746 13.6397 27.7139 13.7566 27.6497C13.8735 27.5854 13.9672 27.4994 14.0392 27.3928C14.1137 27.5161 14.2151 27.6124 14.3436 27.6805C14.472 27.7498 14.6249 27.7845 14.8021 27.7845C14.9794 27.7845 15.1438 27.7524 15.2735 27.6882C15.4032 27.624 15.5021 27.5264 15.5715 27.3928C15.5972 27.4364 15.628 27.4788 15.6652 27.5212C15.7025 27.5636 15.75 27.6008 15.8091 27.6342C15.8682 27.6676 15.9401 27.6946 16.0223 27.7152C16.0852 27.7306 16.161 27.7383 16.2432 27.7421V27.746H17.132V24.9896H16.8238V27.439L16.8315 27.4403ZM8.27341 27.4403H7.9613C7.8457 27.4403 7.73781 27.4249 7.63634 27.3928C7.53487 27.3607 7.44624 27.3144 7.36918 27.2528C7.29211 27.1911 7.23175 27.1153 7.18808 27.0267C7.14441 26.9368 7.12257 26.834 7.12257 26.7197C7.12257 26.6054 7.14569 26.5091 7.19321 26.4166C7.24074 26.3241 7.30367 26.2458 7.38202 26.1803C7.46037 26.1148 7.549 26.0647 7.64918 26.0287C7.74937 25.9928 7.8534 25.9748 7.9613 25.9748H8.27341V27.4403ZM9.97012 27.4403L9.48975 26.2612C9.60792 26.161 9.72865 26.0878 9.85324 26.0428C9.97783 25.9966 10.1076 25.9735 10.2437 25.9735C10.3799 25.9735 10.5199 26.0005 10.656 26.0557C10.7922 26.1109 10.9077 26.179 11.0028 26.2612L10.5224 27.4403H9.97269H9.97012ZM18.3445 24.9909H18.0363V27.7473H18.3445V24.9909ZM24.6215 25.6627V27.7473H21.1356C20.966 27.7473 20.8042 27.7267 20.6501 27.6856C20.4959 27.6458 20.3611 27.5829 20.2455 27.4981C20.1299 27.4133 20.0374 27.3067 19.968 27.1757C19.8987 27.0447 19.864 26.8893 19.864 26.7069C19.864 26.5579 19.8935 26.4205 19.9539 26.292C20.0143 26.1636 20.099 26.0531 20.2095 25.9594C20.32 25.8669 20.4535 25.7937 20.6102 25.741C20.7669 25.6883 20.9416 25.6627 21.1343 25.6627H21.6185V27.4403H22.8426V25.6627H23.1508V27.4403H24.3132V25.6627H24.6215ZM20.4163 27.2476C20.4921 27.3106 20.5807 27.3581 20.6822 27.3915H20.6834C20.7849 27.4249 20.8928 27.4416 21.0084 27.4416H21.3128V25.9709H21.0084C20.9031 25.9709 20.8003 25.9876 20.7001 26.0223C20.6 26.057 20.5113 26.1071 20.433 26.1726C20.3546 26.2381 20.2917 26.3151 20.2442 26.4063C20.1967 26.4975 20.1723 26.5926 20.1723 26.7082C20.1723 26.8238 20.1941 26.9265 20.2378 27.0177C20.2814 27.1076 20.3405 27.1847 20.4163 27.2476ZM3.34895 28.1133H3.66492V28.4293H3.34895V28.1133ZM21.3025 24.9909H21.6185V25.3069H21.3025V24.9909ZM24.6253 28.1095H24.3094V28.4254H24.6253V28.1095ZM3.88712 28.1133H4.20309V28.4293H3.88712V28.1133ZM2.29444 24.9909H2.61041V25.3069H2.29444V24.9909ZM33.7485 24.9909H33.4326V25.3069H33.7485V24.9909ZM30.7058 24.9909H31.014V27.7473H30.7058V24.9909ZM21.0791 24.9909H20.7631V25.3069H21.0791V24.9909ZM6.27742 26.2008C6.31082 26.3062 6.32623 26.4179 6.32623 26.5386V27.7486H4.57557V27.4416H6.01925V26.5502C6.01925 26.4616 6.01026 26.3845 5.99357 26.3203C5.97687 26.2561 5.94733 26.197 5.90366 26.143C5.85999 26.0917 5.80476 26.0506 5.73797 26.0184C5.67118 25.9876 5.60053 25.9709 5.52604 25.9709H5.25631V25.6639H5.48365C5.63008 25.6639 5.75338 25.6858 5.85485 25.7307C5.95632 25.7757 6.04751 25.8425 6.12971 25.9324C6.1965 26.0069 6.24531 26.0955 6.27742 26.2008ZM47.3017 24.9909H46.9935V27.7473H47.3017V24.9909ZM33.972 24.9909H34.288V25.3069H33.972V24.9909ZM46.0969 24.9909H45.7887V27.4403H44.7303C44.7945 27.299 44.8267 27.1487 44.8267 26.9869C44.8267 26.8251 44.7971 26.6799 44.7406 26.5438C44.6828 26.4063 44.6045 26.2882 44.5043 26.1893C44.4041 26.0891 44.2859 26.0107 44.1485 25.9529C44.011 25.8951 43.8633 25.8669 43.7041 25.8669C43.5448 25.8669 43.4061 25.8964 43.2725 25.9555C43.1389 26.0146 43.0233 26.0942 42.9244 26.1957C42.8255 26.2972 42.7485 26.4153 42.6919 26.5515C42.6354 26.6876 42.6072 26.8328 42.6072 26.9895C42.6072 27.0717 42.6162 27.15 42.6329 27.2258C42.6496 27.3016 42.6714 27.3735 42.6997 27.4429H41.7453C41.8096 27.3016 41.8417 27.1513 41.8417 26.9895C41.8417 26.8276 41.8121 26.6825 41.7556 26.5463C41.6978 26.4089 41.6195 26.2907 41.5193 26.1918C41.4191 26.0917 41.3009 26.0133 41.1635 25.9555C41.0261 25.8977 40.8784 25.8695 40.7191 25.8695C40.5598 25.8695 40.4224 25.899 40.2888 25.9581C40.1552 26.0172 40.0396 26.0968 39.9407 26.1983C39.8418 26.2997 39.7648 26.4179 39.7082 26.554C39.6517 26.6902 39.6235 26.8353 39.6235 26.992C39.6235 27.0742 39.6325 27.1526 39.6492 27.2284C39.6659 27.3041 39.6877 27.3761 39.716 27.4454H38.7385V24.996H38.4303V27.4454H37.449V26.9753C37.449 26.8572 37.4335 26.7454 37.4027 26.6388C37.3719 26.5322 37.3231 26.4423 37.2563 26.3678C37.1767 26.2779 37.0868 26.2111 36.9866 26.1674C36.8864 26.1238 36.7592 26.1019 36.6051 26.1019H35.2423L35.8216 24.9948H35.4864L34.8955 26.0981C34.9058 26.1649 34.9212 26.2227 34.9443 26.2715C34.9675 26.3203 34.9957 26.3665 35.0343 26.4102H36.6038C36.7014 26.4102 36.7849 26.4243 36.8556 26.4551C36.9262 26.4847 36.9827 26.5245 37.0264 26.5759C37.0701 26.6273 37.0996 26.6863 37.115 26.7531C37.1304 26.8199 37.1381 26.8944 37.1381 26.9753V27.4454H34.2906V25.6678H33.8051C33.6124 25.6678 33.4377 25.6935 33.2823 25.7461C33.1256 25.7988 32.992 25.872 32.8816 25.9645C32.7711 26.0583 32.6863 26.1687 32.626 26.2972C32.5656 26.4256 32.5361 26.563 32.5361 26.712C32.5361 26.8944 32.5707 27.0498 32.6401 27.1808C32.7095 27.3119 32.8019 27.4185 32.9175 27.5032C33.0331 27.588 33.168 27.6509 33.3221 27.6908C33.4763 27.7319 33.6381 27.7524 33.8064 27.7524H39.9138C40.0139 27.8603 40.1321 27.9451 40.2695 28.008C40.407 28.0709 40.556 28.1018 40.7178 28.1018C40.8796 28.1018 41.0351 28.0709 41.1776 28.0093C41.3202 27.9476 41.4422 27.8616 41.545 27.7524H42.9C43.0002 27.8603 43.1184 27.9451 43.2558 28.008C43.3932 28.0709 43.5422 28.1018 43.7041 28.1018C43.8659 28.1018 44.0213 28.0709 44.1639 28.0093C44.3065 27.9476 44.4285 27.8616 44.5312 27.7524H46.0969V24.996V24.9909ZM33.9823 27.4403H33.6779C33.5623 27.4403 33.4544 27.4236 33.353 27.3902C33.2515 27.3568 33.1629 27.3093 33.0871 27.2463C33.0113 27.1834 32.9522 27.1063 32.9085 27.0164C32.8649 26.9252 32.843 26.8225 32.843 26.7069C32.843 26.5913 32.8662 26.4962 32.9137 26.4051C32.9612 26.3139 33.0241 26.2368 33.1025 26.1713C33.1808 26.1058 33.2695 26.0557 33.3696 26.021C33.4698 25.9863 33.5726 25.9696 33.6779 25.9696H33.9823V27.4403ZM41.4692 27.3041C41.4268 27.403 41.369 27.4878 41.2958 27.5597C41.2226 27.6317 41.1365 27.6869 41.0376 27.7267C40.9387 27.7665 40.8321 27.7858 40.7165 27.7858C40.6009 27.7858 40.4995 27.764 40.4031 27.7229C40.3068 27.6805 40.2233 27.6227 40.1527 27.5495C40.082 27.4763 40.0268 27.3915 39.987 27.2939C39.9472 27.1963 39.9279 27.0922 39.9279 26.983C39.9279 26.8739 39.9484 26.7685 39.987 26.6696C40.0268 26.5707 40.082 26.486 40.1514 26.4128C40.2207 26.3395 40.3029 26.2817 40.3993 26.2381C40.4956 26.1944 40.6009 26.1726 40.7165 26.1726C40.8321 26.1726 40.9426 26.1931 41.0415 26.2342C41.1404 26.2753 41.2264 26.3318 41.2996 26.4038C41.3729 26.4757 41.4294 26.5605 41.4705 26.6594C41.5116 26.7583 41.5321 26.8662 41.5321 26.9843C41.5321 27.1025 41.5116 27.2065 41.4692 27.3054V27.3041ZM44.4555 27.3041C44.4131 27.403 44.3553 27.4878 44.2821 27.5597C44.2088 27.6317 44.1228 27.6869 44.0239 27.7267C43.925 27.7665 43.8184 27.7858 43.7028 27.7858C43.5872 27.7858 43.4857 27.764 43.3894 27.7229C43.2931 27.6805 43.2096 27.6227 43.1389 27.5495C43.0683 27.4763 43.0131 27.3915 42.9732 27.2939C42.9334 27.1963 42.9129 27.0922 42.9129 26.983C42.9129 26.8739 42.9334 26.7685 42.9732 26.6696C43.0131 26.5707 43.067 26.486 43.1364 26.4128C43.2057 26.3395 43.2879 26.2817 43.3843 26.2381C43.4806 26.1944 43.5859 26.1726 43.7015 26.1726C43.8171 26.1726 43.9276 26.1931 44.0265 26.2342C44.1254 26.2753 44.2114 26.3318 44.2846 26.4038C44.3578 26.4757 44.4144 26.5605 44.4555 26.6594C44.4966 26.7583 44.5171 26.8662 44.5171 26.9843C44.5171 27.1025 44.4953 27.2065 44.4529 27.3054L44.4555 27.3041ZM2.12618 27.7486C1.95792 27.7486 1.79609 27.728 1.64196 27.6869L1.64324 27.6856C1.48911 27.6458 1.35425 27.5829 1.23865 27.4981C1.12305 27.4133 1.03057 27.3067 0.961216 27.1757C0.891857 27.0447 0.857178 26.8893 0.857178 26.7069C0.857178 26.5579 0.886719 26.4205 0.947087 26.292C1.00745 26.1636 1.09223 26.0531 1.20269 25.9594C1.31315 25.8669 1.44673 25.7937 1.60342 25.741C1.76012 25.6883 1.93352 25.6627 2.12618 25.6627H2.61169V27.4403H3.83446V25.6627H4.14272V27.7486H2.12618ZM1.23608 26.4051C1.18856 26.4962 1.16415 26.5964 1.16415 26.7069H1.16544C1.16544 26.8225 1.18727 26.9252 1.23094 27.0164C1.27461 27.1063 1.3337 27.1834 1.40948 27.2463C1.48526 27.3093 1.57388 27.3568 1.67535 27.3902C1.77682 27.4236 1.88471 27.4403 2.00031 27.4403H2.30472V25.9696H2.00031C1.89499 25.9696 1.79223 25.9863 1.69205 26.021C1.59186 26.0557 1.50324 26.1058 1.42489 26.1713C1.34654 26.2368 1.2836 26.3139 1.23608 26.4051ZM23.5002 28.1133H23.1842V28.4293H23.5002V28.1133ZM22.6448 28.1133H22.9607V28.4293H22.6448V28.1133ZM25.8211 28.1377C25.8404 28.0414 25.8507 27.9335 25.8507 27.8128V27.7473H29.8105V24.9909H29.5023V27.4403H28.1934L28.7316 26.1533C28.6494 26.0814 28.5621 26.0146 28.4696 25.9517C28.3771 25.8887 28.2821 25.8335 28.1844 25.786C28.0868 25.7384 27.9879 25.7012 27.8877 25.6742C27.7876 25.6472 27.6887 25.6344 27.591 25.6344C27.4934 25.6344 27.3907 25.6485 27.2905 25.6742C27.1903 25.7012 27.0914 25.7372 26.9925 25.7834C26.8936 25.8296 26.7986 25.8849 26.7074 25.9491C26.6162 26.0133 26.5314 26.0801 26.4518 26.152L26.9938 27.439H25.8468V25.6614H25.5385V27.8128C25.5385 27.9001 25.5347 27.9733 25.5257 28.0337C25.5167 28.0941 25.5013 28.1429 25.4795 28.1801C25.4576 28.2174 25.4281 28.2443 25.3908 28.261C25.3536 28.2777 25.3061 28.2867 25.247 28.2867C25.2187 28.2867 25.1943 28.2854 25.1738 28.2829C25.1532 28.2803 25.125 28.2739 25.089 28.2636L25.0081 28.559C25.0929 28.5821 25.1763 28.5937 25.2585 28.5937C25.369 28.5937 25.4615 28.5757 25.5373 28.5398C25.613 28.5038 25.6734 28.4524 25.7197 28.3843C25.7659 28.3163 25.798 28.2341 25.8173 28.139L25.8211 28.1377ZM26.8384 26.2612C26.9565 26.161 27.0773 26.0878 27.2019 26.0428C27.3265 25.9966 27.4562 25.9735 27.5923 25.9735C27.7285 25.9735 27.8685 26.0005 28.0046 26.0557C28.1408 26.1109 28.2564 26.179 28.3514 26.2612L27.8711 27.4403H27.3213L26.8397 26.2612H26.8384ZM1.75498 24.9909H2.07095V25.3069H1.75498V24.9909ZM3.06509 29.7677H2.59114L1.54562 30.871V29.7677H1.15901V31.9614H1.54562V31.3257L1.88728 30.975L2.63866 31.9614H3.10619L2.15187 30.7117L3.06509 29.7677ZM3.45812 29.7677H3.84473V31.9627H3.45812V29.7677ZM5.97559 31.2846L4.79777 29.7677H4.44071V31.9614H4.82089V30.4009L6.03338 31.9614H6.35577V29.7677H5.97559V31.2846ZM8.51873 31.0713H7.95615V30.7361H8.89249V31.6583C8.67671 31.8433 8.3646 32 7.97542 32C7.28697 32 6.83486 31.5106 6.83486 30.871V30.8646C6.83486 30.2493 7.30624 29.7291 7.969 29.7291C8.35175 29.7291 8.58809 29.8357 8.81414 30.0271L8.56882 30.3187C8.39928 30.1748 8.23359 30.0836 7.95358 30.0836C7.54771 30.0836 7.24073 30.4381 7.24073 30.8581V30.8646C7.24073 31.3154 7.53872 31.648 7.98826 31.648C8.19505 31.648 8.38386 31.5825 8.51873 31.4824V31.0713ZM10.2463 29.7677H9.42681V31.9627H10.2463C10.9373 31.9627 11.4151 31.4836 11.4151 30.8645V30.8581C11.4151 30.2403 10.9373 29.7677 10.2463 29.7677ZM11.0092 30.871C11.0092 31.3 10.7074 31.6108 10.2463 31.6108H9.81342V30.1183H10.2463C10.7087 30.1183 11.0092 30.4356 11.0092 30.8645V30.871ZM11.7773 30.8646C11.7773 30.2467 12.2538 29.7291 12.9294 29.7291H12.9307C13.6063 29.7291 14.0777 30.2403 14.0777 30.8581V30.8646C14.0777 31.4824 13.5999 32 12.9243 32C12.2487 32 11.7773 31.4888 11.7773 30.871V30.8646ZM12.9294 31.6455C13.3661 31.6455 13.6705 31.2974 13.6705 30.871V30.8646C13.6705 30.4381 13.3597 30.0836 12.923 30.0836C12.4863 30.0836 12.1819 30.4317 12.1819 30.8581V30.8646C12.1819 31.291 12.4927 31.6455 12.9294 31.6455ZM15.637 30.8055L14.9678 29.7677H14.5555V31.9614H14.9357V30.3944L15.6241 31.4233H15.637L16.3306 30.388V31.9614H16.7172V29.7677H16.3062L15.637 30.8055ZM18.13 30.8646C18.13 30.2467 18.6065 29.7291 19.2821 29.7291H19.2834C19.959 29.7291 20.4304 30.2403 20.4304 30.8581V30.8646C20.4304 31.4824 19.9526 32 19.277 32C18.6014 32 18.13 31.4888 18.13 30.871V30.8646ZM19.2821 31.6455C19.7189 31.6455 20.0233 31.2974 20.0233 30.871V30.8646C20.0233 30.4381 19.7124 30.0836 19.2757 30.0836C18.839 30.0836 18.5346 30.4317 18.5346 30.8581V30.8646C18.5346 31.291 18.8454 31.6455 19.2821 31.6455ZM20.9082 31.9614H21.2948V31.0688H22.4033V30.7168H21.2948V30.1183H22.5446V29.7677H20.9082V31.9614ZM24.2387 30.3444C24.2387 30.5126 24.3389 30.5884 24.7602 30.6886H24.7589C25.2239 30.8016 25.4653 30.9673 25.4653 31.3308V31.3372C25.4653 31.7469 25.1429 31.9923 24.6806 31.9923C24.344 31.9923 24.0281 31.8767 23.7635 31.6416L23.996 31.3655C24.2066 31.5466 24.4173 31.6506 24.6908 31.6506C24.9297 31.6506 25.08 31.5414 25.08 31.3745V31.368C25.08 31.2113 24.9927 31.1266 24.5842 31.0328C24.1167 30.9198 23.8521 30.7823 23.8521 30.3778V30.3713C23.8521 29.9963 24.1668 29.7355 24.6035 29.7355C24.9233 29.7355 25.1776 29.8332 25.4011 30.0117L25.1943 30.3033C24.9965 30.1555 24.7987 30.0772 24.5971 30.0772C24.371 30.0772 24.2387 30.1941 24.2387 30.3379V30.3444ZM26.6509 29.7522L25.6837 31.9627H26.0793L26.3053 31.4323H27.3457L27.5692 31.9627H27.9777L27.0105 29.7522H26.6521H26.6509ZM26.4466 31.0906L26.8242 30.2121L27.2044 31.0906H26.4466ZM29.1465 31.6429C29.4894 31.6429 29.7001 31.4361 29.7001 31.0315L29.6988 31.0328V29.7689H30.0854V31.0135C30.0854 31.6686 29.7116 31.9974 29.1401 31.9974C28.5685 31.9974 28.2037 31.6673 28.2037 31.0315V29.7677H28.5903V31.0161C28.5903 31.4233 28.8035 31.6429 29.1465 31.6429ZM31.4713 29.7677H30.6518V31.9627H31.4713C32.1623 31.9627 32.6401 31.4836 32.6401 30.8645V30.8581C32.6401 30.2403 32.1623 29.7677 31.4713 29.7677ZM32.2342 30.871C32.2342 31.3 31.9324 31.6108 31.4713 31.6108H31.0384V30.1183H31.4713C31.9337 30.1183 32.2342 30.4356 32.2342 30.8645V30.871ZM33.1295 29.7677H33.5161V31.9627H33.1295V29.7677ZM35.8255 29.7522L34.8583 31.9627H35.2539L35.4799 31.4323H36.5203L36.7438 31.9627H37.1523L36.1851 29.7522H35.8267H35.8255ZM35.6212 31.0906L35.9988 30.2121L36.379 31.0906H35.6212ZM39.3126 30.46V30.4664L39.3139 30.4651C39.3139 30.826 39.0969 31.0418 38.7886 31.1304L39.382 31.9614H38.926L38.3853 31.1959H37.9024V31.9614H37.5157V29.7664H38.4958C38.7719 29.7664 38.989 29.8486 39.1303 29.986C39.2471 30.1055 39.3126 30.2686 39.3126 30.46ZM37.9024 30.1183V30.8556H37.9036H38.4688C38.7449 30.8556 38.9209 30.7104 38.9209 30.4882V30.4818C38.9209 30.2467 38.7514 30.1183 38.4649 30.1183H37.9024ZM40.633 29.7522L39.6659 31.9627H40.0615L40.2875 31.4323H41.3279L41.5514 31.9627H41.9598L40.9927 29.7522H40.6343H40.633ZM40.4288 31.0906L40.8064 30.2121L41.1866 31.0906H40.4288ZM44.0342 30.3315C44.0342 30.5948 43.8826 30.7361 43.7195 30.8209H43.7182C43.9764 30.9082 44.1549 31.0559 44.1549 31.3539V31.3603C44.1549 31.7534 43.8325 31.9627 43.3419 31.9627H42.3246V29.7677H43.311C43.5628 29.7677 43.7606 29.8357 43.8865 29.9616C43.9841 30.0592 44.0342 30.1774 44.0342 30.3251V30.3315ZM43.2609 30.1093H42.7048V30.6924H43.2327C43.4806 30.6924 43.6476 30.5948 43.6476 30.3944V30.388C43.6476 30.2159 43.5088 30.1093 43.2609 30.1093ZM43.3457 31.6198C43.609 31.6198 43.7696 31.517 43.7696 31.3192V31.3128C43.7696 31.1279 43.6219 31.0174 43.3175 31.0174H42.7048V31.6198H43.3457ZM45.0206 29.7677H44.634V31.9627H45.0206V29.7677ZM46.3564 29.7522H46.7147H46.716L47.6832 31.9627H47.2747L47.0513 31.4323H46.0109L45.7848 31.9627H45.3892L46.3564 29.7522ZM46.5298 30.2121L46.1522 31.0906H46.91L46.5298 30.2121Z" fill="white"/>
</svg>
